<svg version="1" xmlns="http://www.w3.org/2000/svg" width="872" height="872" viewBox="0 0 654.000000 654.000000"><path d="M251.4 1.7c-.3 1-1.5 4.2-2.6 7.1-2 5-2 6.1-.9 16.3.6 6 1.4 11.5 1.7 12.4.6 1.5.6 1.5-11.6 4-12.1 2.5-21.9 7.9-47.5 26.2-14.1 10.1-18.7 14.1-25.6 22.4-4.4 5.3-6.1 7.7-23.9 32.4-12.3 17.1-23.3 35.9-39.6 68C84.3 224.2 82 229.7 64.5 280c-1.2 3.6-3.7 10.1-5.5 14.5-1.7 4.4-3.8 9.8-4.5 12-2.4 7.2-7.7 28.9-8.4 34.5-.5 3-1.5 10.2-2.4 16-4.3 27.8-5 37.6-4.4 58.3.3 11.1.8 20.9 1.2 21.8.5 1.4-.7 1.5-10.5 1.1l-11-.5 3.1 8.4c1.7 4.6 4.2 11.3 5.4 14.9 3.3 9.2 8.4 20.9 14.3 32.5 4.3 8.7 11.6 18.7 23.4 32.5C76 538.5 84 548 85.9 550.7c4.6 6.8 28.9 30.2 36.6 35.5 18.7 12.9 28.7 18.4 52.5 29 16.5 7.4 19.1 8.3 38.5 13.3 15.8 4.1 21.1 5.7 30.5 9 8.2 3 18.6 5.2 27 5.8 3.6.3 8.5 1 11 1.6 2.5.6 10.1 1.5 17 2.1 6.9.6 16.2 1.7 20.7 2.4 13.6 2.2 49-.6 61.8-4.9 3.9-1.3 12.6-3.9 19.5-5.8 6.9-2 16.8-5.2 22-7.2 5.2-2.1 16.1-6.1 24.2-9 11.6-4.2 17.5-7 27.5-13.3 7.1-4.4 16.6-10.1 21.3-12.7 18.8-10.4 24.7-14 29.4-17.9 2.8-2.3 7.1-5.7 9.7-7.6 20.5-15.1 37.6-32.1 49.4-49 2.2-3 6.5-9.2 9.6-13.7 16.2-23.1 31.1-53 40.7-81.5.9-2.6 1.4-4.9 1.1-5.1-.2-.2-6.7 0-14.4.4-7.7.5-25.2 1.3-39 1.8-13.8.6-34.4 2.1-46 3.5-30.7 3.7-49.4 4.6-93.5 4.6-21.7 0-43.8.5-49 1-5.2.6-19.8 1.5-32.5 2l-23 1-2.2-2.6c-2.4-2.6-3-5.8-1.4-6.8.5-.3 2.3-3 3.9-6 3.6-6.3 15.4-18.4 27.9-28.5 14.8-12 34.1-20.2 61.8-26.4 9.6-2.1 12-2.2 59.5-2.2 45.1 0 50.4.2 59.5 2 8.9 1.7 17 2.3 18 1.3.1-.1-.3-5.3-1-11.3-3.3-27.4-11.6-52.7-26-79.3-4.7-8.7-10-19.4-11.9-23.7-7.3-17.4-16.1-33.4-29.1-52.9-19.1-28.4-54.2-71.6-81.8-100.6-7.7-8-14.9-15.5-16-16.8-1.2-1.3-4.7-4.5-7.7-7-3-2.6-7.9-6.8-10.8-9.4-9.1-8.2-28.9-20.6-45.6-28.9-19.2-9.4-47.9-21.6-55.6-23.6-3-.8-6.6-1.7-8-2.1-1.4-.4-4.5-.5-7-.1-6 .8-6.6.5-8-4.7-1.4-5-4.6-7.7-5.6-4.7zm6.5 36.8c2.6 14.8 12.9 71.6 22.1 122 1.6 8.8 3.6 19.8 4.4 24.5.8 4.7 3.1 17 5 27.5 7.2 39.2 9.5 52.2 10.6 60 .6 4.4 1.5 9.3 2 11 .5 1.6 2.7 13.3 4.9 26 2.3 12.6 4.5 25.2 5.1 28 2.3 11.8 14.2 77.4 14.7 81 .3 2.2 1.1 4.7 1.7 5.5 1.5 1.9 3.8 7.1 3.3 7.6-.1.2-5.8.6-12.5 1l-12.2.7v-7.6c0-4.2.5-7.9 1-8.2.7-.4.9-6 .5-15.6-.5-15.4-1.4-20.1-8.5-41.9-1.2-3.6-3.2-11.7-4.6-18-1.3-6.3-3-14.4-3.9-18-.8-3.6-1.9-11-2.5-16.5-.7-5.5-1.8-14.5-2.5-20s-2.3-18.6-3.5-29c-1.2-10.5-2.8-22.8-3.6-27.5-2-12.2-5.1-34.8-6.4-47-.9-8.8-3.1-26.3-3.5-28-.1-.3-.7-4.6-1.4-9.5-.7-5-2.1-14.9-3.1-22-1.1-7.2-2.6-18.4-3.5-25-.9-6.6-2-14.9-2.5-18.5-.5-3.6-2.1-15.5-3.5-26.5s-2.8-20.7-3.1-21.5c-1.6-4.4-2.3-17.7-1.2-21l1.2-3.5 1.3 6.5c.7 3.6 2.6 14.1 4.2 23.5zm16 23.4c12.4 31.7 20.9 60.4 27.1 92.1 2.2 10.7 5 24.9 6.4 31.5 1.3 6.6 2.7 17.4 3.1 24 .7 14 3 33.8 5.1 44.5.9 4.1 1.9 15.4 2.4 25s1.4 22.4 1.9 28.5c.6 6 1.5 18.9 2.1 28.5.6 9.6 1.7 25.1 2.5 34.5 1.7 20 1.7 19.4.5 17.5-.5-.8-1-2.7-1-4.1 0-1.4-1.3-9.3-2.9-17.5-1.5-8.2-3.3-18.5-4-22.9-.6-4.4-2-12.1-3.1-17-1-5-2.4-12.4-3-16.5-2.7-18.9-5.2-34.8-6-38-1.3-4.8-3.3-16.6-7.5-43-2-12.4-4.8-28.4-6.2-35.5-1.4-7.2-3.1-16.8-3.8-21.5-.7-4.7-2-11.7-2.9-15.5-3.9-17.5-5.8-27.1-8-42.5-4-26.7-5.4-35.2-6.6-40.5-.6-2.8-1.8-8.6-2.6-13-1.4-7.5-1.8-9.7-2.9-17-.5-3.8 4.6 6.4 9.4 18.4zm-22.6-7.2c1.2 14.1 12.8 94.9 14.6 102.2.5 2 1.5 9.9 2.1 17.6 1.2 14.1 2.7 25.8 5.5 41.5 2.8 15.6 5.4 34.4 6.5 46.5.5 6.6 1.4 14.2 2 17 .5 2.7 1.1 8.6 1.4 13 .2 4.4 1 11.3 1.6 15.3 1.4 8.6.7 10.7-.9 3-.7-2.9-2.5-10-4.2-15.8-1.7-5.8-3.9-14.6-4.9-19.5-1-5-2.9-13.7-4.3-19.5-9.1-37.3-13-56.8-14.2-71.5-.9-10-3.5-35-5.6-52.5-1.5-13.3-1.9-23.4-1.9-50.9 0-18.9.4-34 .9-33.7.4.3 1.1 3.6 1.4 7.3zm-11.5 2.8c-.1 1.9-.6 3.5-1.1 3.5-.5 0-.7.8-.5 1.8.3 1-.1 2.3-.9 3-.7.7-1.3 2.5-1.4 4-.3 7.3-.9 10.6-2.5 12.3-2.4 2.7-3.1 1.6-2.8-4.3.1-2.9 0-4-.3-2.3-.2 1.6-.9 3.2-1.4 3.5-.4.3-.2 1.7.5 3.1.7 1.4 1.1 4 .8 5.9-.3 2.3-.1 3.1.7 2.6.6-.4 1.1-.2 1.1.3 0 .6-.5 1.1-1.1 1.1-.6 0-.9 1.7-.7 4.2.2 3.4-.1 4.3-1.5 4.6-1 .2-1.7-.3-1.7-1.2 0-.9-.7-1.6-1.5-1.6-1.3 0-1.4 1-.9 6.4.9 8.7-.1 13.6-2.7 13.6-1.8 0-2-.5-1.5-3.3.4-2.3.3-2.6-.3-1.2-.7 1.6-.9 1.2-1.2-2.1-.3-2.6.1-4.6.9-5.3.8-.8 1-2.1.5-3.4-.4-1.2-.6-3.4-.5-5l.1-2.7h-10.2c-5.6 0-10.9.4-11.7 1-.9.6.9.8 5.3.6 3.7-.1 6.7.1 6.7.5s.6.9 1.3 1.2c.6.2.5.3-.4.2-.9-.1-2.3.1-3 .6-.9.6 0 .9 2.6.9 2.2 0 5-.7 6.1-1.5 2-1.3 2.1-1.3 1.6 1-.2 1.5-.9 2.2-1.8 1.8-1-.4-1.2 0-.7 1.3.3 1.1 1.1 2.2 1.7 2.6.7.5.7.8-.1.8-.9 0-1.3 1.7-1.3 5 0 4.1.3 5 1.8 5.1 1.1.1.8.4-.8.9-1.4.4-3.6.5-5 .3-2-.4-2.2-.2-1 .6 1 .7 1.1 1.1.3 1.1-.7 0-1.3.3-1.3.7 0 .5 3.2.9 7.1 1 4.3.2 6.8-.1 6.4-.7-.3-.6.1-1 .9-1 .9 0 1.3-.6 1-1.4-.3-.8-.1-1.6.3-1.9.5-.3.8-2.9.7-5.6-.2-2.8.1-5.1.6-5.1.4 0 .7 2.5.6 5.5-.2 4.4.1 5.5 1.4 5.5 4.3.1 4.8 2 5.6 18.6.3 8.7 1.1 16.5 1.6 17.1.6.7.8 2.2.5 3.3-.3 1.1-.1 2 .5 2 .5 0 .9-1.2.8-2.8-.3-4.4-.1-5.2 1.5-4.6 1.9.8 1.8 13.1-.1 14.2-.7.4-1 1.8-.7 3.5.5 2.6.6 2.6 2 1 1.3-1.6 1.4-1.4.8 1.9-.4 2.5-.2 3.8.5 3.8.6 0 1 .8.8 1.7-.1 1 .1 2.3.4 2.9.4.5.8 3.2.9 5.8.2 2.6.7 5 1.1 5.2.5.3.4 1.2-.3 2-.9 1.1-.9 1.4 0 1.4.7 0 1.1 1 .9 2.2-.2 1.3.4 2.8 1.2 3.5 2.2 1.7 0 3.5-4.2 3.5-2.3 0-3.5.5-3.5 1.4 0 1.7.3 1.7 2.8.4 1.3-.8 2.5-.7 4 .1 2 1 2.1 1.6 1.5 9.1-.4 4.4-1.1 8.9-1.6 9.8-.8 1.5-.6 1.7 1 1.3 1.3-.4 2.2.1 2.6 1.3.4 1.1 1.3 2.6 2 3.4.7.8 1.5 2.8 1.8 4.5.5 2.1.4 2.4-.2 1.1-.6-1.4-1.1-1.6-1.6-.7-.4.6-.3 1.8.3 2.5s.8 1.5.5 1.9c-.3.3.4 1.5 1.6 2.7 2.6 2.6 2.3 2.9-2.5 4-3.6.8-3.7.8-3.1-1.8.5-2.1.4-2.4-.4-1.2-.9 1.1-1 .7-.5-1.8.5-2.2.3-3.2-.6-3.2-.8 0-1-1.1-.6-3.5.3-1.9.2-3.5-.4-3.5-.5 0-.8 3.4-.7 7.5.1 4.7.5 7.2 1.1 6.8.6-.4.8.5.4 2.5-.4 1.7-.2 3.4.3 3.7.6.3 1-.2 1-1.3 0-2.5.7-3.1 3.1-2.5 1.3.4 1.9 1.4 2 3.7 0 1.7.3 2.4.6 1.6.6-1.5 2.2-3 3.4-3 1.1 0 5.1 20.2 4.4 22.7-.4 1.6-.2 2.2.5 1.8.7-.4.9.2.4 1.9-.3 1.5-.2 2.6.4 2.6.8 0 2.2 3.9 2.8 8 .1.8.3 1.9.4 2.5.5 2.5.1 21.5-.5 22.4-.3.6-.1 2 .5 3.1.7 1.3.7 2 .1 2s-.8.7-.4 1.6c.4 1-.1 1.7-1.6 2.1-2.2.6-2.7 1.8-1.2 2.7.5.4 1.1.1 1.3-.6.6-1.7 2.8 0 2.8 2.2 0 1-.4 2.2-1 2.5-1.4.9-1.3 9.5.1 9.5.6 0 .9-.7.5-1.5-.3-.8-.1-1.5.4-1.5.6 0 1 .6 1 1.4 0 .7.9 1.6 2.1 1.9 1.2.3 1.8 1 1.5 1.6-.4.5.2.9 1.4.8 2.1-.1 2.8-3.1 1-4.2-.5-.3-1-.1-1 .6s-.3.9-.7.5c-.5-.4 0-1.4 1-2.1 1.5-1.1 1.6-1.7.8-3.3-.6-1.2-.8-2.7-.6-3.5.9-2.1 1.2-9.8.4-8.9-1.3 1.4-2.1 13.2-.8 13.2.6 0 .1.9-1.2 1.9-2.4 1.9-2.4 1.9-3.5 0-.5-1.1-1.3-1.6-1.8-1.2-.4.4-.2-.6.4-2.2.6-1.6 1-5 .8-7.4-.2-3.6 0-4.6 1.4-4.9 1.2-.2 1.8.5 2.1 3l.4 3.3.1-3.7c.1-2 .5-3.8 1-4.1.4-.2.1-.2-.5-.1-.7.2-1.3-.1-1.3-.6s-.7-.7-1.5-.4c-1.2.5-1.4-.1-1-2.7.4-2.7.3-3-.4-1.4-.9 1.9-1 1.9-1-.3-.1-1.2.3-2.2.7-2.2.5 0 .9-2 .9-4.5 0-2.4-.3-4.3-.6-4.1-.3.2-.7-1.5-.8-3.7-.2-3.8-.1-4 .9-1.7.5 1.4 1.9 4.3 2.9 6.6s1.9 4.5 1.9 5 .7 2.2 1.6 3.9c.8 1.6 1.3 3.7 1.1 4.7-.3 1 0 1.6.6 1.5.8-.1 1.4 4.2 2 13.8.5 8.9 1.2 14.2 2 14.7s.7.8-.5.8c-.9 0-2 .5-2.4 1.2-.5.8-.1.9 1.2.5 1.8-.7 1.8-.7 0 .8-1.1.8-2.9 1.4-4 1.4-1.7-.1-1.8-.2-.3-.6.9-.2 1.7-.9 1.7-1.5s-.3-.8-.7-.5c-.3.4-1.2.2-2-.4-1.3-1.2-1.4-1-1.7 2.6-.1 1.7-.8 2-4.8 1.8-5.3-.1-12.1-2.1-11.4-3.2.3-.4-.1-.8-.9-.8s-1.1.5-.8 1c.3.6.1.7-.5.3-1.9-1.1-1.5-3.6.4-2.9 1.3.5 1.5.2 1-1.5-.5-1.4-.1-2.4 1.1-3.1 1-.6 1.2-1.1.6-1.1-.9 0-1.3-1.7-1.3-5 0-3.7-.4-5-1.5-5-.9 0-1.2-.6-.9-1.5.4-.8.1-1.5-.6-1.5-.8 0-1 .8-.6 2.2.3 1.3.6 3.2.7 4.3v2l.9-2c.9-2 .9-2 .9 0 .1 1.3-1.1 2.8-3 3.9-2.4 1.4-2.8 2.1-1.8 2.7.9.6 1.8.3 2.5-.6 1.4-1.9 2-1.9 2.8.1.4 1.2.2 1.5-.9 1.1-1-.4-1.6.3-1.9 2.6-.8 4.7-.3 8 1.3 8.5.8.3 1.1 0 .7-.7-.9-1.4-.1-1.4 5.4.3 2.6.8 4.6 2 4.8 3 .3 1.3-.6 1.6-4.5 1.7-2.6.1-6 0-7.4-.1-1.6-.1-2.9.5-3.2 1.4-1 2.4-7.4 2.1-8.7-.4-1.1-2-.5-2.5 2.7-2.1 1.8.2 2.7-1.9 1.3-3.2-1-.9-1.1-.9-.6 0 .8 1.5-2 1.8-2.8.4-.3-.5-1.4-.8-2.4-.6-5.6 1.1-11.2 1.4-10.7.5.3-.6.2-1-.4-1-.5 0-1.1.5-1.3 1.1-.3.8-2 .7-6-.5-3.1-.9-6.8-1.6-8.2-1.6-1.7 0-2.6-.5-2.6-1.6 0-.8-.4-1.3-.9-1-.5.4-.8-.9-.7-2.9.2-1.9 0-3.5-.3-3.5-.4 0-.5-1.9-.3-4.3.2-3.5.1-3.9-.9-2.3-.7 1.2-1 4.2-.6 8 .2 3.4.3 5.2 0 4.2-.4-1.4-.7-1.5-1.3-.6-.4.7-2.9 1.5-5.4 1.7-4.1.5-4.8.3-5.2-1.5-.5-1.7-1-1.9-3.6-1.1-1.7.4-3.5.6-4.1.2-.6-.3-.7-.1-.3.5.7 1.2-3.9 1.1-5.1-.1-.3-.4-1.1-.7-1.7-.7-.6 0-.4.5.4 1 1.3.8 1.2 1-.2 1-2 0-2.5-2.6-.6-3.2.7-.3.8-1 .4-1.7-.7-1-1-1-1.6-.1-.5.9-1.3.9-2.5.2-1.6-.8-1.4-1.1 1.3-1.7 2.8-.6 3.2-1 3.2-4.1 0-2.3-.4-3.3-1.1-2.9-.6.4-.8 1.3-.5 2.1.4 1-.3 1.4-2.7 1.3-2.9 0-3-.1-.9-.9 1.2-.5 2.2-1.1 2.2-1.4 0-.8-8.5.7-8.9 1.7-.2.5-.7.3-1.1-.4-.7-1-1.2-1-2.3-.1-.7.7-1.7.9-2 .5-.4-.3-.7.1-.7.9 0 1.3 1.1 1.6 5.3 1.4 5.1-.1 5.2 0 5.2 2.6-.1 2.3.4 2.8 2.2 2.8 1.7 0 2.3.6 2.3 2.2-.1 2.1-.2 2.1-1.1.5-.5-.9-2.1-1.7-3.5-1.7s-2.2-.4-1.9-1c.4-.6-1.4-1-4.7-1-3.8 0-4.9.3-3.8 1 1.2.8 1.2 1 .1 1-.8 0-1.1.3-.7.7.4.5 3.5.8 6.9.8 5.5 0 6.2.2 6.2 2 0 1.6-.9 2.1-4 2.6-2.2.4-5.6.9-7.5 1.3-2.6.5-3 .4-1.5-.3 1.9-.9 1.9-1-.3-1-2.4-.1-4.4-3.2-2.4-3.9.7-.2 1.2-1.3 1.2-2.4 0-3.8-2.5-1.1-2.8 3.1-.3 2.9 0 4.1.7 3.7 1.8-1.2 1.2.6-.6 2-1 .7-3.1 1.4-4.6 1.4-1.9 0-2.6.4-2.1 1.2.5.8.2.9-1 .5-1-.4-3.3-.7-5.2-.7-3.4 0-4.9-2.2-2.1-3.3.7-.4.6-.6-.5-.6-.9-.1-2.3.5-3 1.3-.9.8-2.7 1.1-4.8.8-3.6-.5-4 .3-.5 1 2.6.4 3.6 1.9 2.3 3.5-.7.9-2.3 1.1-4.9.7-3.5-.6-3.9-.4-3.9 1.5 0 2.5 1.9 2.9 2.1.3.1-1.6.2-1.6.6 0 .3 1.1 1.4 1.8 2.9 1.8 1.9 0 2.5.5 2.2 1.7-.2 1.4-1.7 1.9-6.6 2.4-3.5.3-6.8 1.1-7.5 1.8-.6.6-1.6 1.1-2.2 1.1-.5 0-.3-.5.5-1 1.2-.8 1-1-1-.8-1.6.2-2.5-.3-2.8-1.5-.2-1.1.3-1.7 1.3-1.7.9 0 1.4-.4 1.1-.9-.4-.5.4-.7 1.6-.3 1.4.3 1.9.2 1.4-.6-1-1.7-4.3-1.5-4.9.2-.4 1-1.4 1.2-2.9.8l-2.3-.6 2.5-.7c1.4-.4-1.8-.7-7.5-.8-6.3-.1-10.5.3-11.2 1-.6.6-3.2 1.1-5.7 1.1-2.5-.1-4.6.3-4.6.9 0 .6-.6.6-1.9 0-1.6-.9-1.8-.7-1.5 2.4.1 1.8.5 4.3.9 5.4.9 3.1-.3 6.1-2.6 6.1-1.5 0-1.9-.7-1.9-3.5 0-1.9-.5-3.5-1.1-3.5-.7 0-.9 1.1-.6 3 .4 1.6.2 3.2-.3 3.5-.5.3-1.1-.5-1.3-1.7-.2-1.3-.3-.5-.1 1.7.2 2.2.3 4.3.3 4.7.1.5 1.3.8 2.7.8 1.4 0 2.3-.4 1.9-1-.3-.5-1.2-.7-2-.4-1 .4-1.2 0-.8-1.5.4-1.7.8-1.9 1.9-1 .7.6 1.8.8 2.4.4.6-.4 1-.3.9.2-.3 1.9.2 3.3 1.2 3.3.5 0 .7-.5.4-1-.3-.5-.1-1 .5-1 .7 0 1-1 .6-2.8-1.8-9.3-1.8-11.9.1-12.6 1-.3 2.5-.9 3.3-1.3 1.2-.5 1.3-.3.4.8-.7.8-.8 2.2-.3 3.4.7 1.9.8 1.9.8-.2.1-2.3 1.8-4 2.9-2.8.4.4.1 1-.5 1.2-.7.3-1.3 1.3-1.3 2.4 0 1-.4 1.9-.9 1.9s-.8 1.1-.7 2.5c0 1.4.5 2.5 1 2.5.4 0 .6 1.1.4 2.4-.3 1.4-.1 3.1.3 3.8.7 1 .9.9.9-.3 0-.9.9-1.9 1.9-2.2 1.5-.4 1.8-1 1.3-2.8-.5-1.9-.7-2-1-.7-.5 2.7-1.9 2.2-2-.7 0-1.3.4-2.2.9-2 .4.3 1 .1 1.4-.5.3-.5 1.8-.9 3.3-.9 2.4.2 2.4.2.5.6-1.3.2-2.3.8-2.3 1.3 0 .4 1.5.5 3.3 0 1.8-.4 4.8-.6 6.5-.5 1.8.1 3.5-.2 3.8-.7.3-.4-.3-.8-1.3-.9-1.4 0-1.5-.2-.3-.6.8-.3 1.9-1.1 2.3-1.7.6-.7.7-.4.3.7-.4 1.2-.2 1.7.6 1.5.7-.3 1.4-1.2 1.6-2.1.3-1.3-.4-1.7-3-1.7-2.4 0-2.9.3-1.9.9 1.2.8.8 1.1-1.5 1.6-1.6.4-3.4.8-4.1 1-.6.2-1.4-.2-1.6-1-.4-.8-2-1.3-4-1.2-2.7.1-3.4.5-3 1.6.3 1.2.1 1.1-.7-.1-1.7-2.7 1.9-6 6.2-5.7 5.5.3 6.8 0 6.2-1.6-.4-1 0-1.5 1.6-1.5 1.1 0 1.8.4 1.5 1-.4.6.8 1 2.8 1 2.6 0 3.9.6 5.1 2.5.9 1.4 1.4 3.1 1 3.7-.5.8-1 .5-1.5-.8-.7-1.8-.8-1.8-1.5.3-.3 1.3-.9 2.3-1.3 2.3s-2.1 1.3-3.9 3c-2.4 2.2-4.3 3-7 3-2.4 0-4.8.9-6.7 2.4-3.5 2.8-2.9 4.5.6 1.8 2.5-1.9 7.2-4 5.4-2.4-2.6 2.3-9.4 7.2-9.9 7.2-.3 0-.6-.8-.6-1.8 0-1.4-.2-1.4-.9-.3-.5.8-.6 2.1-.3 3 .5 1.4.3 1.4-1.1.2-1.1-.9-2.8-1.1-5.3-.6-2.1.3-3.4.2-3-.3.3-.5-.5-.8-1.9-.7-1.7.2-2.2-.1-1.8-1.1.3-.8.1-1.4-.5-1.4s-1.2.4-1.4.9c-.1.5-1.6 1.2-3.3 1.5-1.6.4-2.4.3-1.7 0 1.5-.7 1.6-5.4.1-5.4-.6 0-.8.9-.4 2.1.5 1.5.4 1.9-.4 1.5-.8-.5-1.1 1-1.1 4.8 0 4.4.3 5.6 1.6 5.6.8 0 1.2-.4.9-1-.3-.6.1-.7.9-.4 1.3.5 1.6-.1 1.6-3 0-2 .5-3.6 1-3.6.6 0 1 1 .9 2.2-.5 6.2.4 6.8 6.4 4.3 1.6-.7 1.8-.4 1.5 1.6-.2 1.8-1.2 2.6-4 3.3-2.1.5-3.8 1.5-3.8 2.3 0 .7-1.1 1.3-2.5 1.3s-2.5-.4-2.5-.9-1.3-1.1-3-1.5l-3-.6-.2-15.2c0-8.4 0-18.6.1-22.6.2-4.9-.2-7.8-1.1-8.9-.8-1.1-.9-1.4-.1-1 .9.6 1.1-.1.8-2.1-.2-1.6.1-3.5.6-4.3.7-1.1.9-1.1.9.3 0 .9.8 1.9 1.8 2.2 1.5.5 1.7 2.1 1.5 16.4-.2 13.4 0 15.9 1.3 15.9 1.2 0 1.4-2 1.2-12.3-.2-6.7-.5-11.8-.8-11.4-.3.4-.6-6.4-.7-15.1-.2-13.2 0-15.9 1.2-15.9.7 0 1.6.4 2 .9.3.6.8 7.4 1.1 15.3.5 14.3 2 28.7 2.3 22 0-1.8.5-3.1 1-2.7.5.3 1.2.1 1.6-.5.3-.5 1.5-1 2.7-1 1.4 0 1.8-.5 1.4-1.5-.4-1.2.5-1.5 5.4-1.5 3.3 0 6 .3 6 .7 0 .5-2.2.6-5 .5-3.2-.3-5 0-5 .7s2.5 1.1 6.5 1.1H94v-3.5c0-2.6-.3-3.3-1.5-2.9-.8.4-1.5 1.1-1.5 1.6 0 .6-3.1.9-8 .6-7.9-.3-8-.3-8.1 2.2l-.2 2.5-.5-2.5c-.4-2.3-.5-2.4-1.3-.5-.6 1.5-.8 1.6-.8.4-.1-.9.6-2.2 1.4-2.9 2.7-2.2 1.3-14.8-1.6-14.2-1 .2-1-.1.2-1 2-1.6 3.6-7.8 2-7.8-.6 0-.8-.7-.5-1.5.4-.9 0-1.5-.7-1.5-1.2 0-1.2-.2 0-.9.9-.6 1.1-1.6.6-2.7-.7-1.8-.7-1.8-1.5.1-.7 1.9-.7 1.9-1.4-.3-.4-1.2-1.2-2.2-1.7-2.2-.6 0-.7.4-.4 1 .3.5.1 1-.5 1s-1-.8-.8-1.8c.2-.9.8-1.7 1.3-1.7.6 0 1.6-.4 2.4-.9.9-.6 1.2-.5.7.2-.3.6-.2 1.3.3 1.6.5.3 1.1-.3 1.4-1.4.3-1.2 1.3-2 2.4-1.9 1.6.1 1.6.2.1.6-2.4.6-2.3 3 .1 4.2 1.8 1 2.3 3.5 3.6 17.3.1 1 .5 2.1.9 2.5.5.5.6-.4.4-2-.3-1.5-.1-3 .4-3.3.5-.3.3-1.3-.4-2.2-.7-.9-.8-1.3-.2-.9.7.4 1.4-.5 1.8-2.6.4-1.9.2-3.3-.4-3.5-.5-.2-1-1-1-1.8 0-.7.6-1.1 1.4-.8.8.3 1.6-.3 1.9-1.5.5-2.2-.7-2.9-1.8-1.1-.4.6-1 .8-1.5.5-.5-.3-1.1.3-1.3 1.2-.4 1.7-.5 1.7-.6.1 0-1 1.1-2.4 2.7-3.2 2.7-1.4 2.7-1.4-1.8-1l-4.5.4 4.3-1.1c2.4-.6 4.2-1.3 3.9-1.5-.3-.4-5.6-.8-15.4-1.3-2.4-.2-1.3-3.1 1.3-3.7 2.2-.6 2.5-1.1 2.3-4.3-.3-4.9 1.1-13.2 2.1-12.6.5.3 1.1-.7 1.3-2.2.4-2.5.4-2.4.6.7.2 1.9.4 6.3.4 9.7.1 3.5.7 6.3 1.2 6.3.6 0 .3.5-.5 1-1.2.8-.9 1 1.1 1 2.3 0 2.6-.3 2.1-2.5-.2-1.4-.7-2.5-1.1-2.5-.4 0-.8-.8-.8-1.8-.1-.9-.5-4.6-.8-8.2-.4-4-1.2-6.8-2.1-7.3-1.9-1.1-1.8-2 .6-4.7 1.1-1.3 2-2.9 2-3.6 0-.9.8-.7 2.5.8 1.9 1.6 2.2 2.4 1.3 3-.9.6-.7.8.6.6 2.4-.4 3.1-3.6.7-3.4-.9.1-1.7-.8-1.9-2.2-.2-1.2-.8-2-1.3-1.7-.5.4-.9.1-.9-.4 0-1.4.6-1.4 3-.1 1.5.8 1.8.6 1.7-1.3-.1-1.2.2-3.4.6-5 .6-2 .4-2.7-.7-2.7-1.2 0-1.2-.5-.3-2.9.6-1.7 1.5-2.7 2.1-2.4.5.4.7-.3.4-1.5-.8-3 2.2-12.1 4.1-12.7.9-.2 5-.5 9.1-.6 4.1-.1 10.2-.8 13.5-1.5 7.7-1.8 7.5-1.8 7.5 1 0 1.7-.8 2.6-3.2 3.4l-3.3 1.1 3.5-.5c1.9-.3 4.5-.5 5.7-.6 1.8 0 2.1-.5 1.8-2.9-.3-2.8.9-4.1 1.7-1.7.3.7 1 .8 1.7.4 1.1-.7 1.1-1 0-1.7s-.9-.9.6-1c1.1-.1.2-.5-2-.8-2.8-.4-3.9-1.1-3.7-2.1.3-1.2.1-1.2-.9-.3-.9 1-1 1.5 0 2.7.8 1 .9 1.6.1 2.1-.5.3-1 .1-1-.4 0-.6-1-1.2-2.2-1.2-1.7-.1-1.9-.2-.5-.6.9-.2 1.7-.9 1.7-1.4 0-.5-1.1-.6-2.7-.2-1.6.5-4.5.7-6.5.7-2.1-.1-3.5.2-3.2.7.3.5 2.4 1 4.7 1 3.3.2 3.5.3 1.2.6-1.6.2-4 .9-5.3 1.5-1.8 1-2.6.9-3.9-.5-1.5-1.5-1.5-1.6.7-1 1.6.4 2.1.3 1.6-.5-.4-.7-1.8-1.2-3.1-1.2-1.8 0-2.2.4-1.8 2.1.5 1.9.2 2-4.8 1.7-4.2-.2-5.5-.7-5.7-2.1-.3-1.4.4-1.7 4-1.8 3.1 0 3.8-.3 2.3-.8-1.9-.8-1.9-.8.4-2 1.3-.7 5.6-1.6 9.7-2 5.9-.6 7.7-1.1 9.4-3 1.5-1.8 2-2 2-.8 0 .8-.6 1.8-1.2 2-.8.3-.6.6.5.6 1 .1 1.7-.6 1.7-1.8 0-2.9-1.7-3.4-3.9-1.2-1.6 1.6-2.9 1.8-8.5 1.4-6.2-.4-6.9-.3-9.3 2.1-1.4 1.4-3.1 2.6-3.9 2.6-.7 0-1.4.6-1.6 1.2-.6 1.7.2-11 .8-14 .2-1.2 1.2-2.2 2-2.2 1.1 0 1.5.6 1.1 2-.3 1.1-.1 2 .4 2s.9-.8 1-1.8c0-1.1.2-1.2.6-.4.3.7 0 1.8-.5 2.5-1.2 1.4-1 4.2.2 5.4.5.4.6-.5.2-2-.4-1.9-.3-2.6.4-2.2.5.3 1.1-.2 1.1-1.2.1-1.4.2-1.5.6-.2.3 1.2 2.2 1.6 9.8 1.8l9.5.2-.1-3.3c-.1-3-.2-3.1-.8-.8-.7 2.7-3.5 3.4-3.7 1-.3-3.2-.5-3.4-1.5-1.7-.5.9-.8 2.1-.5 2.6.3.5-1.2.5-3.5 0s-4.9-.7-5.9-.4c-1.1.3-2 0-2.3-.9-.8-1.9.7-2.9 4.6-3 1.7-.1 3.3-.8 3.5-1.5.3-1 0-1.2-1.1-.8-2.3.9-2.9-.4-.9-1.9 1.5-1.2 1.5-1.5.2-2.3-1.2-.9-1.2-1.1.3-1.7 1.8-.7 2.4-5.4.7-5.4-.5 0-1-1.5-.9-3.3.1-3.1.1-3.1 1-.7.6 1.9.8 1.4.5-2.3-.2-3.7 0-4.7 1-4.3 1 .4 1.4-.5 1.4-3.2v-3.7l6.1.3 6.1.4-.7-3.2c-.5-2.1-.3-3.5.5-4 .6-.4 1-2.1.8-3.8-.5-5.1-2.6-2.4-3 3.8-.2 4.9-.5 5.5-2.5 5.6-1.3.1-2-.2-1.7-.7.3-.5 0-.9-.5-.9-.6 0-1.1.6-1.1 1.2 0 .7-.5.5-1.1-.5-1.4-2.3-.2-5.8 1.7-5 .8.3 1.4-.1 1.4-.8 0-.8.3-2.5.5-3.9.5-2.3.4-2.3-.6.2-.6 1.6-1.5 2.8-2 2.8s-.6-.7 0-1.8c1.4-2.8 2.9-6.5 3.6-9 .4-1.2 1.1-2.2 1.6-2.2s.9-.6.9-1.3c0-.6 1-2.3 2.1-3.7l2.1-2.5-.5 2.7c-.2 1.5-.1 2.5.4 2.3.4-.3.9.3 1.1 1.2.3 1 .4-.9.4-4.1-.1-5.2.1-5.9 1.9-6.1 1.7-.1 2 .4 1.7 3.1-.2 1.8 0 4 .6 4.9.7 1.3.9.3.9-3.6-.1-3 .3-8.4.7-12.2.8-7 1.3-7.5 6.5-6.7 1.3.1 1.3-.1.2-1.4-1.7-2.1.2-2.1 2.3-.1.8.8 2 1.5 2.6 1.5.7 0 1 .8.7 2-.3 1.2-.1 1.8.5 1.4.5-.4.8-1.7.5-3-.2-1.3.1-2.5.7-2.7.6-.2.8-.7.5-1.1-.4-.4-1.3-.1-2 .7-1.1 1.2-1.6 1.1-3.4-.5-2-1.9-2-1.9 0-3.4 1.1-.8 1.9-1.7 1.7-2-.2-.2 0-2.5.4-5 .7-4.9 2.7-6.4 8.4-6.4 3.4 0 4.8-1.6 2-2.3-1.1-.3-2-.1-2 .4s-.4.9-1 .9c-.5 0 0-1.6 1.2-3.5l2-3.6 17.8.3c9.8.2 17.6 0 17.3-.5-.2-.4.4-.7 1.5-.7 1 0 1.9-.6 1.9-1.3.1-.6.2-4.9.3-9.5.2-4.5.7-8.2 1.1-8.2.5 0 .9.4.9 1 0 .5 1.2 1 2.6 1 3.3 0 2.2-1.7-1.7-2.5-2.5-.6-3-1.1-2.5-2.8.3-1.2.6-3.5.6-5 0-2 .4-2.6 1.3-2 .6.4 2.7.8 4.5.9 2.1 0 2.8-.2 2-.7-1-.7-.9-.9.4-.9.9 0 1.8.5 2 1.1.2.6 1.3.9 2.3.6 1.9-.5 1.9-.5-.2-1.2-1.3-.4-2.3-1.1-2.3-1.7 0-.5-.9-.4-2 .2-1.1.6-3.1.8-4.5.4-1.4-.3-3.8-.1-5.3.5l-2.7 1.1v14c0 10-.3 14-1.2 14-.6 0-1.8.3-2.7.6-1.3.5-1.4-.9-1.1-10.5.2-6.1-.1-11.3-.6-11.7-.5-.3-.9.2-.9 1 0 .9-.4 1.6-1 1.6-.5 0-1-1.4-1-3.2 0-2.5.3-2.9 1.2-2 2 2 2.8 1.4 2.8-2.3 0-3.8 2.2-5.9 7.3-6.9 8.2-1.7 8.1-1.7 6.7-2.6-.9-.6-1.9-.5-2.4 0-.6.6-1.4 1-1.9 1s.5-1.4 2.2-3.1c1.7-1.7 3.5-2.7 4.1-2.4 1.4.9 4-2 4-4.4 0-1.2.5-2.1 1-2.1h1.5c.3 0 1.5-1 2.7-2.2l2.1-2.1.9 2.3c.5 1.3.8 3.1.7 3.9-.2 2.8.1 3.6 1 2.3.7-1.2 2.4-1.8 5.4-2.1.4-.1-.1-.9-1-1.9-1-1.1-2.2-1.7-2.7-1.4-.5.3-.6 0-.2-.6.4-.7 1.7-1.2 2.9-1.2s3.1-.7 4.1-1.5c2.6-1.9 4.6-1.9 4.6.1 0 .8.7 2.2 1.5 3 1.3 1.4 1.5 1.3 1.5-.4 0-1.1.3-2.7.6-3.6.3-.9.1-1.6-.5-1.6s-1.1.8-1.1 1.7c0 1.5-.1 1.5-1.4-.2-1.2-1.7-1.5-1.8-5.5-.2-3.9 1.6-4.1 1.6-4.1-.2 0-1.2 1.7-2.8 4.9-4.5 2.8-1.4 6.5-3.5 8.3-4.6 5.1-3.1 6.9-2.7 6.6 1.5zM218 71.4c0 .3-.4.8-1 1.1-.5.3-1 .1-1-.4 0-.6.5-1.1 1-1.1.6 0 1 .2 1 .4zm18.1 18.7c-.1 7.7-.8 9.3-3.3 8.4-1.3-.5-1.4-1.4-.6-5.2.8-3.6.7-4.7-.3-5.4-1-.6-1.1-.9-.1-.9.6 0 1.2-.6 1.2-1.3 0-1.4 2.1-3.9 2.8-3.2.2.2.4 3.7.3 7.6zM193 94.7c-.4 4.2-.5 4.4-.8 1.5-.3-3 .2-6.2 1-6.2.2 0 .1 2.1-.2 4.7zm-11.8 11.8c-.1 6.5.2 9.4.9 8.9.6-.3.9-1.8.6-3.3-.3-1.5-.2-3.3.4-4.1.6-1 .9.1.9 3.6 0 4.8-.2 5.2-2.7 5.9-4.7 1.3-20.2 1.5-20.9.3-1.1-1.7 2.4-3.7 5.9-3.3 1.8.1 2.3 0 1.2-.2-3.3-.8-4.8-4.3-1.9-4.3.9 0 1.4-.6 1.1-1.3-.3-.7.2-2.2 1-3.2 1.4-1.9 1.4-1.9.8.6-.4 1.6-.2 3 .4 3.3.7.5 1.1-.7 1.1-3.3 0-3.9 2.3-7.7 4-6.6.5.3.6 2.8.3 5.5-.5 4.1-.3 5 .9 5s1.6-1.1 1.5-4.8c-.1-2.6-.5-5-.9-5.3-.4-.3.2-1.5 1.3-2.8 3.3-3.5 4.2-1.4 4.1 9.4zm45.8-4.2c0 .5-.4.5-1 .2-.5-.3-1-1.4-1-2.3 0-1.5.2-1.5 1-.2.5.8 1 1.9 1 2.3zm6.8-1.1c1.5 1.9 2.7 15.8 1.4 15.8-.6 0-1.6-.8-2.1-1.8-.6-.9-1.1-1.3-1.1-.9 0 .5-.7.1-1.6-.7-1.3-1.3-1.4-2.2-.5-4.8.6-1.7 1.1-4.4 1.1-5.9 0-3.1 1.1-3.7 2.8-1.7zM230 103c0 .5-.4 1-1 1-.5 0-1-.5-1-1 0-.6.5-1 1-1 .6 0 1 .4 1 1zm-37.1 6.7c-.1 4.4-.3 5.1-.8 2.8-.6-2.9-.3-8.5.5-8.5.2 0 .3 2.6.3 5.7zm24.8 2.5c-.3.7-.5.2-.5-1.2s.2-1.9.5-1.3c.2.7.2 1.9 0 2.5zm1.8 6.8c1.3.6 1.5.9.5.9-.8 0-2.2-.4-3-.9-1.8-1.2-.2-1.2 2.5 0zm16.7 9.2c.2 2 0 3.4-.4 3.2-.4-.3-.7-2.6-.7-5.2.1-4.9.5-4.2 1.1 2zm1.8 17.1c.5 1.6.5 2.5 0 2.2-.5-.3-1 .3-1.2 1.2-.2 1-.4-.9-.5-4.2 0-3.3.2-5.1.4-4 .2 1.1.8 3.3 1.3 4.8zm-132 70.2c-.7.8-1 2.1-.7 2.9.4 1 .1 1.3-.8 1-1.1-.4-1.2-1.2-.4-3.1 1.5-4 2.2-4.9 2.7-3.5.2.7-.2 1.9-.8 2.7zm-3 6.7c0 2.7-1.6 5.5-2.6 4.6-.6-.7 1.4-6.8 2.2-6.8.2 0 .4 1 .4 2.2zm2.3 16.5c-.7.2-1.9.2-2.5 0-.7-.3-.2-.5 1.2-.5s1.9.2 1.3.5zM256 247c0 .5-.5 1-1.1 1-.5 0-.7-.5-.4-1 .3-.6.8-1 1.1-1 .2 0 .4.4.4 1zM71.7 336.2c-.3.8-.6.5-.6-.6-.1-1.1.2-1.7.5-1.3.3.3.4 1.2.1 1.9zm-7.2 3.8c-.2 1.6.1 3.2.6 3.5 1.2.8 1.2 3.5-.1 3.5-.5 0-1-.9-1-2s-.4-2-.8-2c-.5 0-.7-1.4-.4-3 .6-3.9 2.2-3.9 1.7 0zm101.5 4c0 .5-.4 1-1 1-.5 0-1-.5-1-1 0-.6.5-1 1-1 .6 0 1 .4 1 1zm26 2c0 .5-.7.7-1.5.4-.8-.4-1.5-.8-1.5-1 0-.2.7-.4 1.5-.4s1.5.4 1.5 1zm91.2 10.3c.1 6 .2 6.6.8 3.2l.7-4 .2 3.8c0 2.3.5 3.6 1.1 3.2.6-.3 1-.2 1 .3s.9 1.2 2 1.5c1.3.3 1.8 1 1.4 2.1-.8 2.1-9.1 2.1-11.8.1-1.9-1.4-3.6-1.2-3.6.5 0 .5.7.7 1.5.4 1.8-.7 2 .3.2 2-.7.7-1.8 1.1-2.6.8-.8-.3-1.1 0-.7.7.5.7.1.9-.8.5-.9-.3-1.6-1.5-1.6-2.5 0-1.6-.7-1.9-4.7-1.7-4.3.1-4.4.2-1.1.5 2.1.3 3.9 1.1 4.2 2 .9 2.4-.4 3.1-1.9 1-.7-1-1.9-1.5-2.8-1.1-.8.3-2.3-.3-3.3-1.4-1.1-1-2.8-2.2-3.9-2.7-1.8-.7-1.8-.9-.2-1.2.9-.3 1.7-.8 1.7-1.2 0-.9 11.3-.6 12.9.3 1.4.9 4.1.1 4.1-1.3 0-.6-4.8-1-11.7-1-7.4.1-11.1.4-9.8.9 1.2.5 1.4.9.6.9-.8.1-2.3-.7-3.4-1.7-1.9-1.6-2-1.6-1.4.1.6 1.7.6 1.7-1.7 0-2.1-1.6-2.2-1.9-.8-2.4 1-.4 2.3-.2 3 .4.9.7 1.8.4 3.3-.9 1.6-1.4 3.7-1.8 9.7-1.9 7.4 0 7.7-.1 8-2.5.5-3.8 1.9-4.6 4.2-2.5 1.6 1.4 2.3 1.6 3.2.7.9-.9.8-1.2-.5-1.2-2.3 0-2.1-.8.6-3 3-2.5 3.9-.8 3.9 8.3zm-209.3-4.1c.1.5-.3.8-.9.8-.5 0-1-1.2-.9-2.8 0-2.4.1-2.5.9-.7.5 1.1.9 2.3.9 2.7zm165.5.6c-.6.4-1.4 1.4-1.7 2.2-.4 1-.6.8-.6-.7-.1-1.2.5-2.3 1.2-2.6 1.6-.6 2.4.2 1.1 1.1zm-4.4.2c-1.2.8-1.2 1-.1 1 .8 0 1.2.2 1 .5-.3.2-1.6.1-2.9-.2-2.2-.6-2.3-.7-.4-1.4 2.7-1.1 4.2-1 2.4.1zm34.1.4c-.9 1.1-.9 1.5.1 1.9.7.2.1.4-1.4.3-1.6 0-2.8-.6-2.8-1.3 0-.7.7-1 1.7-.6 1.1.4 1.4.3.9-.5-.4-.7-.1-1.2 1-1.2 1.3 0 1.4.3.5 1.4zM139.5 355c.3.5-.1 1-.9 1-.9 0-1.6-.5-1.6-1 0-.6.4-1 .9-1 .6 0 1.3.4 1.6 1zm2.1 2.5c-1.1.8-2.6 1.5-3.3 1.5-.7 0-1.3.4-1.3 1 0 .5-.4 1-1 1-2.2 0-.8-2.1 2.3-3.4 4.2-1.9 5.7-1.9 3.3-.1zM253 357c0 .5-.4 1-1 1-.5 0-1-.5-1-1 0-.6.5-1 1-1 .6 0 1 .4 1 1zm-194.1 7.8c0 1.5.3 10.2.7 19.3.4 11.1.3 16.8-.4 17.3-.6.3-.8-.1-.5-1.3.3-1 0-2.2-.6-2.5-.7-.5-1.1.7-1.1 3.6 0 3.1.3 3.9 1 2.8.6-1 1-1.1 1-.3 0 1.5 3.6 1.7 4.5.3.3-.5 1.8-.8 3.4-.7 2.2.2 2.7.6 2.3 2.2-.6 2.3-6.3 9.5-7.6 9.5-.5 0-.3-.6.3-1.4.9-1.1.4-1.2-3.4-.3-4.2 1-4.5 1.2-4.4 4.1.3 4.5-1 9.4-2.7 10-1.1.4-1.2.2-.4-1.4.7-1.3.7-2.1-.1-2.6-1.5-.9-.4-18.5 1.2-19.4.8-.6.8-1.3 0-2.8-1.4-2.6-1.4-4.2 0-4.2.6 0 .8.7.5 1.6-.3.8-.2 1.3.3 1 .4-.3.7-2.8.5-5.6-.2-4.7.8-6.6 2-3.8.3.7.4-3.6.3-9.5-.1-8.6.1-11 1.3-11.7.9-.6 1-1 .3-1-.6 0-1.1-.9-1-2 .1-1.1.5-2 .9-2s.4-.7.1-1.7c-.4-1.1-.3-1.4.5-.9.6.4 1.1 1.9 1.1 3.4zm37.6-1.8c.3.5-.3 1-1.5 1s-1.8-.5-1.5-1c.3-.6 1-1 1.5-1s1.2.4 1.5 1zm128.5 3.5c10.8 3.9 27.2 13.8 37.1 22.5 4.7 4.1 11.8 10.4 15.8 13.9 10.3 9.1 19.6 15.1 23.3 15.1h3l-.7 9.2c-.8 11.9-1.1 12.6-4.3 13.5-4.7 1.4-226.4.7-241.7-.6l-6.5-.6 4.9-4c2.6-2.2 12.4-10.7 21.7-18.9 9.3-8.2 20.1-17.1 23.9-19.8 3.9-2.6 8.7-6.4 10.8-8.3 2.1-1.9 8.6-5.8 14.5-8.6 5.9-2.9 10.9-5.5 11.2-5.8.5-.6 5.1-2.4 17.4-6.8 10.1-3.6 16.8-4.2 40.6-3.8 20.2.3 21.9.5 29 3zm56 3.5c.8.5 1.1 1 .7 1-.8 0 1.8 3 2.6 3 .2 0 .2-1.1-.1-2.5-.5-2.8.5-3.1 5.3-1.4 2.9 1.1 3.3 1.9 5.2 9.1 1.8 7.2 1.7 9.8-.6 8.4-.5-.3-1.7-3.5-2.6-7.1l-1.8-6.5-4.3.3c-5.6.3-5.7 1.5-.2 1.9 3 .2 4.2.8 4.4 2 .1 1-.4 1.8-1.2 1.9-8.6.5-11.4-1-11.4-6.2 0-4.8 1-5.8 4-3.9zm-7.6 3.6c.9.3 1.6 1.4 1.6 2.3 0 1-.3 1.2-.8.5-.4-.6-1.6-1.6-2.7-2.2-2.1-1.2-.8-1.6 1.9-.6zm-218.8 5.1c-.3 1-.6 3.5-.8 5.5-.1 2.1-.6 3.8-1 3.8-.5 0-.6-1.7-.3-3.8.9-5 1.5-7.2 2.1-7.2.3 0 .3.8 0 1.7zm236.4 4.4c.7 1.1.9 2.3.6 2.7-.3.3-.6 0-.6-.6s-.7-.9-1.5-.6c-.8.4-1.5 1.6-1.5 2.7 0 1.6.3 1.8 1.1 1 1.4-1.4 6.3.7 7.2 3.2.4.8 1.4 1.5 2.3 1.5 1.9 0 1.4 2-.8 3.4-1.3.8-2.3.4-4.3-1.6-1.5-1.6-3.3-2.4-4.4-2.1-2.2.6-5.1-2.1-5.1-4.8 0-1.3-.4-1.8-1.2-1.3-.8.5-.9.2-.5-1 .4-1 .7-2.1.7-2.6 0-.8 2.1-1.5 5.7-1.9.7 0 1.7.8 2.3 2zm-206.3 7.6c-.8.7-3.7-.9-3.1-1.9.3-.5 1.2-.4 2 .3.8.6 1.3 1.4 1.1 1.6zm-3.2.6c1.6 1.3 1.5 1.4-1.4.9-1.7-.2-3.8.1-4.6.8-1.6 1.4-1.8 1-.9-1.4.8-2 4.4-2.1 6.9-.3zm212.3 5.7c.7 1.1 1.1 2 .9 2-.2 0-1.2-.9-2.2-2-1-1.1-1.4-2-.9-2 .5 0 1.5.9 2.2 2zm5.2 2.8c0 1-.3 2.2-.7 2.5-1 1.1-3.2-1.3-2.6-2.9.8-2 3.3-1.7 3.3.4zm-237 2.7c0 .8-.4 1.5-1 1.5-.5 0-.7-.7-.4-1.5.4-.8.8-1.5 1-1.5.2 0 .4.7.4 1.5zm-3.3 12.2c-.4.3-.2 1.2.3 1.8.7.8.4 1.7-.9 2.9-1.7 1.5-1.9 1.5-2.5.1-.5-1.3 2-5.5 3.3-5.5.2 0 .1.3-.2.7zm559.4 20.2c1.4.1.7 2.4-3.7 12.5-3 6.9-5.4 13-5.4 13.6 0 .6-1.6 4.4-3.5 8.3-4.1 8.7-10.5 24.2-10.5 25.6 0 2.4-9.5 13.5-23.9 28.1-8.5 8.5-17.2 17.7-19.3 20.5-5.8 7.3-15.3 16.9-18.5 18.6-1.5.7-5 2.7-7.8 4.3-2.7 1.6-7.4 4.2-10.4 5.8-6.4 3.5-12.9 7.8-22.6 14.8-3.8 2.8-9.2 6.2-12 7.5-2.7 1.4-7.4 4-10.3 5.9-2.9 2-9.2 5.4-14 7.7-4.8 2.3-12.7 6.1-17.7 8.4-4.9 2.4-11.1 5-13.6 5.9-2.6.8-9.4 3.4-15 5.6-9.9 3.9-21.8 6.9-42.9 10.5-10 1.8-30.1 1.6-49.5-.5-41.7-4.5-44.4-4.9-62-9.8-4.9-1.3-11.9-3-15.5-3.7-15-2.9-21.5-4.7-27.1-7.5-3.2-1.7-6.7-3-7.8-3-5.8 0-33.6-13.8-45.1-22.4-5.2-3.9-11.5-8.4-14-10-2.5-1.6-7.4-5.5-11-8.6-3.6-3.1-7.8-6.5-9.5-7.5-1.6-1-7.1-5.3-12.2-9.6-5-4.3-10.2-8.3-11.5-9-4.4-2.3-16.3-14.2-20.3-20.3-4.4-6.5-9.2-13.1-15.2-20.9-7.2-9.2-11.1-16.1-20.7-37.1-1.9-4-5.2-10.2-7.5-13.7s-4.1-7.2-4.1-8.2c0-1.7.5-1.8 6.3-1.2 11.8 1.2 38.2 4.6 39.7 5 .8.2 10.5 1.1 21.5 1.9 32.6 2.4 91 2.8 141 1 24.2-.9 47.2-1.8 51-1.9 42.3-1.4 49.3-1.8 69.8-4.1 9.4-1.1 17.6-1.4 26-1 6.7.3 17.4.9 23.7 1.2 8.5.4 16 0 28-1.5 18.7-2.3 28.3-2.9 70-4.2 32.6-1 41.7-1.8 56.5-4.8 5.5-1.1 12-2.2 14.5-2.3 3.7-.2 29.7-.1 36.1.1z"/><path d="M232 61.5c-1.4.8-2 1.4-1.4 1.5.5 0 1.9-.7 3-1.5 2.4-1.8 1.6-1.9-1.6 0zM224.1 70.9c-1.1.7-1.1.9 0 1.4 1 .4.7.8-.8 1.2-1.3.4-2.3 1.2-2.3 1.7s1 .6 2.3.2c2.9-.9 2.9-.9 2.5-3.3-.2-1.4-.7-1.8-1.7-1.2zM210.2 76c0 1.4.2 1.9.5 1.2.2-.6.2-1.8 0-2.5-.3-.6-.5-.1-.5 1.3zM225.5 79c-.3.5-.1 1 .4 1 .6 0 1.1-.5 1.1-1 0-.6-.2-1-.4-1-.3 0-.8.4-1.1 1zM210.8 79.9c1 .6.7 1-1.3 1.5-1.9.5-2.5 1.1-2.1 2.3.4.9.1 2-.6 2.4-.8.5-.4 1.1 1.5 2 1.4.6 2.5 1.5 2.2 1.8-.2.4 2.3.7 5.5.8 3.3.1 6.5.5 7.1.9.9.5 1 .2.6-.9s-.1-1.7.8-1.7c3.1 0 2.1-1.5-1.2-1.8-2.1-.1-3.2.2-2.8.8.3.5.2 1-.4 1-.5 0-1.7.3-2.7.7-1.2.4-1.5.3-1-.6.6-.9 0-1.1-2.1-.9-2.3.2-2.9-.1-3.1-2-.3-1.9.1-2.2 2.7-2.2 2.5 0 3.1-.4 3.1-2.1 0-1.6-.4-1.9-2-1.4-1.1.4-2 .2-2-.4 0-.6-.8-1.1-1.7-1.1-1.4 0-1.5.2-.5.9zM212 83c-1.8 1.2-3 1.3-3 .2 0-.4 1-.9 2.2-.9 1.8-.2 2 0 .8.7zm-2.3 4.2c-.3.8-.6.5-.6-.6-.1-1.1.2-1.7.5-1.3.3.3.4 1.2.1 1.9z"/><path d="M219.3 80.7c1.8.5 1.8.5.1 1.8-1.5 1-1 1.1 2.9.5 2.6-.4 5.1-1.1 5.5-1.5.4-.5-.1-.5-1-.2-1 .3-2 .2-2.3-.3-.4-.6-2.1-.9-3.8-.9-1.8.1-2.4.3-1.4.6zM224 95.4c0 .9.5 1.6 1 1.6.6 0 1-.4 1-.9 0-.6-.4-1.3-1-1.6-.5-.3-1 .1-1 .9zM200.8 100c2.1 1.3 4.8 2 8 1.9l4.7-.1-4.5-.8c-2.5-.5-5.8-1.3-7.3-1.9-4.2-1.7-4.6-1.3-.9.9zM199.5 105.6c-.5.2-1 3.1-.9 6.4.1 5.2-.2 6-1.8 6-2.7 0-2.2 1.5.7 1.6 1.3.1 2.4-.1 2.3-.5-.2-1.8.3-2.4 1.1-1.2.6.9.9.6.9-1.3 0-1.5-.5-2.3-1.1-1.9-.6.4-.8-1.2-.5-4.6.3-2.8.5-5.1.4-5-.1 0-.5.2-1.1.5zM201.6 107.7c-.4.9-.1 2.1.5 2.7.9.8 1 .7.6-.7-.8-2.1.8-2.3 1.7-.2.7 2 2.6 1.9 2.6-.1 0-.8-.4-1.2-1-.9-.5.3-1 .1-1-.5 0-1.7 4.5-.7 4.6 1 .2 3.1.5 3.5 1.4 2 .5-.8 1-2.3 1-3.3 0-2.4-9.5-2.5-10.4 0zM206 115.6c0 3.1.2 3.4 1.5 2 .8-.8 1.5-2.1 1.5-2.9 0-.8-.7-1.7-1.5-2.1-1.2-.4-1.5.3-1.5 3zM229 118.5c.7.8 1.7 1.5 2.2 1.5.6 0 .5-.7-.2-1.5s-1.7-1.5-2.2-1.5c-.6 0-.5.7.2 1.5zM206.7 120.7c-1.1 1-.8 4.3.3 4.3.6 0 1 .7 1 1.5s-.4 1.5-1 1.5c-.5 0-1 .7-1 1.5 0 1.2 1.5 1.5 7.8 1.5s7.9-.3 7.9-1.5c0-.8-.4-1.5-.9-1.5-.4 0-.8.5-.8 1.1 0 1.5-10.2.7-10.8-.9-.2-.8 1.1-1.2 4.7-1.2 2.7 0 5.3-.5 5.6-1.1.5-.7-1.2-1-5.1-.8-5.8.2-5.9.2-5.7-2.4.2-2.6-.6-3.4-2-2zM226.3 121c1.5 1 1.7 3 1.9 15.8.1 8.1.3 12.9.6 10.7.3-3.2.6-3.6 1.2-2 .6 1.5.9.8.9-2.5.1-3.3-.2-4.1-.9-3-.8 1.3-1 1.2-1-.3 0-.9.5-1.7 1-1.7.6 0 1-1.1 1-2.5s-.4-2.5-.8-2.5c-.5 0-.8-2.8-.8-6.3.1-5.9 0-6.2-2.4-6.5-2.2-.2-2.3-.1-.7.8zM198.2 124.4c.6 1.7 1.1 4.3 1.3 5.7.2 1.4.8 3.6 1.5 4.8 1.3 2.5.4 4.4-1 2.1-.7-1.1-1-.8-1 1.2 0 3.1 1.1 3.6 3 1.3.7-.9 1-2.6.6-4.2-2.3-9.4-2.5-11.7-1.6-12.8.8-.9.4-1.3-1.4-1.3-2.2 0-2.3.3-1.4 3.2zM156 124.7c1.4.3 2.9.9 3.5 1.4.5.5 1.8.9 2.8.9 1.6 0 1.7-.3.7-1.5-.8-.9-2.8-1.4-5.4-1.4-2.7.1-3.3.3-1.6.6zM166.5 124.9c1.7.3 3 1.1 3 1.8 0 2 1.4 2.7 2.1.9.3-.9 1.7-1.6 3-1.6 2.1 0 2.3.2 1.2 1.9-.7 1.1-2.2 2.2-3.5 2.6-2.4.6-3.3 4.5-1 4.5.8 0 .8.3.1.8-1.1.7-1.4 22.2-.3 22.2 1 0 1.7-15.5.7-15.8-.5-.2-.4-1 .3-1.8.8-1 .8-1.4 0-1.4-.6 0-1.1-.5-1.1-1.1 0-.5.4-.8.9-.4.5.3 1.1-.9 1.3-2.7.3-3.2.4-3.3 5.6-3.6 5.3-.3 7-1.7 3-2.5-1.3-.2-.6-.4 1.5-.3 2.4.1 3.6.5 3.3 1.3-.4.9.1 1 1.9.3 1.4-.5 3.2-.7 4-.4.8.4 1.5.1 1.5-.5s-.6-1.1-1.2-1.1c-.9 0-.8-.3.2-1 .8-.5 1.2-1.2.8-1.5-.3-.4-7.3-.8-15.4-.9-8.2-.2-13.5-.1-11.9.3zm21.3 1.8c-1 .2-2.8.2-4 0-1.3-.2-.5-.4 1.7-.4 2.2-.1 3.2.1 2.3.4zM221 125.9c0 .6.4 1.1.9 1.1s1.2 1 1.4 2.2c.4 1.6.5 1.4.4-.6-.2-2.7-2.7-5.2-2.7-2.7z"/><path d="M165.2 127.2c-.7.7-1.2 2.3-1.2 3.7 0 2.8.6 2.6 1.2-.4.1-1.1 1-2.5 1.8-3.2.8-.7 1-1.3.5-1.3-.6 0-1.6.5-2.3 1.2zM212.3 128.7c1.5.2 3.7.2 5 0 1.2-.2 0-.4-2.8-.4-2.7 0-3.8.2-2.2.4zM157.3 131.8c-1.3.2-2.3 1.2-2.5 2.5-.2 1.2-.9 2.1-1.6 1.9-1.8-.3-1.5 1.5.4 2.2.8.3 1.2.2.9-.4-.3-.6-.1-1 .4-1 .6 0 1.1.9 1.1 2.1 0 1.3.4 1.8 1.3 1.3s.9-.3-.1.7c-1 1.1-1.4 1.1-2.1.1-.5-.8-.8-.1-.8 1.8 0 1.9.3 2.6.8 1.8.5-.7 1.4-1.3 2.1-1.3.7 0 1.4-1.2 1.6-2.8.2-1.5.7-2.5 1.2-2.2.5.3.6-1.2.3-3.2-.3-2.1-.6-3.8-.7-3.8-.1-.1-1.1.1-2.3.3zm.4 6.4c-.3.8-.6.5-.6-.6-.1-1.1.2-1.7.5-1.3.3.3.4 1.2.1 1.9z"/><path d="M148.9 132.2c-.3 1.4-1 7.6-.9 8.8 0 .8.2 3.7.3 6.5.4 5.3-.2 8.2-1.2 6.8-1-1.3-4.9-3.3-6.6-3.3-.8 0-1.5.6-1.5 1.2 0 .9-.4.8-1-.2-.8-1.3-1-1.2-1 .2 0 1.2.8 1.8 2.1 1.8 1.1 0 1.7-.5 1.4-1-.3-.6-.3-1 .2-1 .4 0 1.3 1.1 2 2.5 1 2.4.9 2.5-1.9 2.5-1.7 0-2.7-.4-2.3-1 .3-.6.1-1-.4-1-.6 0-1.1.7-1.1 1.5 0 1.1 1.2 1.5 5.3 1.5 2.8 0 5.7-.4 6.4-.8.7-.5 1.1-3.8 1.1-9.2 0-4.7.3-9.3.7-10.2.4-.9.4-2.2 0-2.8-.3-.5.1-1 .9-1s1.8-.5 2.1-1c.4-.6-.5-1-1.9-1s-2.6.1-2.7.2zM188.6 135.1c.2.4-.4 1.2-1.3 1.8-1.5.9-1.3 1.1 1.7 1.8 1.9.4 3.7.7 4 .6.3-.1.3 5 .2 11.3-.3 9.8-.2 11.4 1.2 11.4 1 0 1.3.6.9 1.6-.5 1.3-.7 1.3-1.4.2-.7-1-.9-.9-.9.4 0 .9.5 2 1 2.3.6.3 1 1.1 1 1.6 0 .6-.4.7-1 .4-.5-.3-1 .3-1 1.4 0 1.1-.8 2.5-1.7 3-1 .6-1.2 1.1-.5 1.1.6 0 1.3 1 1.3 2.2.1 1.6.3 1.8.6.7.3-1.2 1.1-1.5 2.5-1.1 2.1.5 2.1.6.2 1.3-1.4.6-.8.8 2 .8 3.7.1 3.9 0 2-1.4-1-.8-2.7-1.5-3.6-1.5-.9 0-1.9-.4-2.2-.9-.9-1.4.4-4.1 2-4.1.8 0 1.4-.5 1.4-1.2 0-.6.3-.8.6-.5.4.4.1 1.3-.6 2.2-1 1.3-.9 1.5.9 1.5 1.2 0 2.1-.6 2.1-1.5 0-.8.5-1.5 1.1-1.5.5 0 .7.5.3 1.1-.4.7-.1 1 .7.7.8-.3 1.3-1.7 1.2-3.1l-.2-2.6 2.1 2.1c1.7 1.7 1.8 2.2.7 3-1.1.8-1 .9.4.4.9-.3 1.7-.2 1.7.3s1.1.8 2.4.8c2.6 0 4.3-2.2 2.6-3.2-.6-.4-1-.1-1 .4 0 .6-.7 1.1-1.6 1.1-1.1 0-1.4-.6-.9-2 .5-1.6.3-1.9-1-1.3-2.1.7-3.6-1.5-2.9-4.2.4-1.7.3-1.8-.6-.5-.9 1.2-1.1 1-.7-1.3.3-1.9 0-2.7-1-2.7-.8 0-1.1.5-.8 1 .4.6.4 2.9 0 5.1-.5 3-1.1 3.9-2.3 3.7-1.1-.2-1.7-1.3-1.7-3.1.1-1.5-.3-2.7-.7-2.7-.4 0-.5-.7-.2-1.5.7-1.7-.7-2-2.2-.5-1.2 1.2-1.1-9.1 0-10.9.4-.6.4-1.1-.1-1.1-.4 0-.7-3.1-.6-6.8l.2-6.8h-3.4c-1.8 0-3.2.3-2.9.7zm4.7 2.6c-.7.2-1.9.2-2.5 0-.7-.3-.2-.5 1.2-.5s1.9.2 1.3.5zm3.4 28.5c-.3.8-.6.5-.6-.6-.1-1.1.2-1.7.5-1.3.3.3.4 1.2.1 1.9zM177 137c0 1.1.5 2 1.1 2 .5 0 .7-.5.4-1-.3-.6.3-1 1.4-1 1.8 0 2 .3.9 1.9-.7 1.1-1.5 1.8-1.9 1.5-.7-.4-1.9 2-1.9 3.9 0 .7.7.3 1.5-.7 1.3-1.7 1.5-1.8 1.5-.3 0 .9.5 1.7 1 1.7.6 0 .8-1 .5-2.3-.4-1.4.1-3 1.4-4.3l2-2.2-3.1-.6c-4.5-.9-4.8-.8-4.8 1.4zM204.4 135.8c.7.6 1.4.7 10.5 1 4.8.2 5.3.4 4.8 2.2-.4 1.6 0 2 1.9 2 2 0 2.4-.5 2.4-3 0-1.7-.4-3-1-3-.5 0-.7.8-.4 1.7.5 1.6.4 1.6-.8.2-1-1.2-3.3-1.6-9.7-1.7-4.6-.1-8 .2-7.7.6zM164.8 142.2c-.2 1.3-.9 2.2-1.6 2-1-.2-1.1.4-.6 2 1 3.2 6.4 7.4 6.4 5 0-.4-.8-1.2-1.9-1.9-1.5-.9-1.8-2-1.4-5.2.5-4.2-.3-5.8-.9-1.9z"/><path d="M201 143c-.7 1.6-1 3.6-.7 4.4.3.7 0 1.9-.6 2.6-.9 1-.9 1.1.1.6.6-.4 1.2-.3 1.2.3 0 .5-.6 1.2-1.2 1.4-.8.3-.6.6.5.6.9.1 1.7-.6 1.7-1.4 0-.8.4-1.5.8-1.5.5 0 .8-1 .8-2.3-.1-2 .4-2.2 4.7-2.3 2.7-.1 5.4-.7 6-1.3 1.4-1.4 3-1.5 2.2-.1-.3.5-.1 1 .4 1 .6 0 1.1-.5 1.1-1 0-.6.9-.1 2 1 2.3 2.3 2.6 3.9.8 4.1-.7.1-4.4.1-8.3.1-5.1-.1-6.3.1-4.5.7 2.3.8 2.2.9-1.2 1-3.4.1-5 1.3-3 2.4.4.3 3.8.1 7.7-.4 5.1-.7 7.1-.6 7.7.4.4.6.1 1.5-.7 2-1.2.7-1.4 3.2-.9 15.2.5 14.8 0 17.1-3.3 14.3-1.5-1.1-1.6-1.1-1 .4.3 1 .2 2-.3 2.3-.6.4-1-1.5-.9-4.7.1-4.2.3-4.8.9-2.8.8 2.4.8 2.4.9-.5.1-3.1.1-3.1-5.4-3.1-6.4 0-7.1.9-1.7 2.2l3.7.9.6 8c.3 4.4.6 7.3.7 6.5.2-1.3.3-1.3 1.2 0 .8 1.2 1 1.2 1 .1 0-.8.3-1.1.7-.7.5.4-.1 1.4-1.1 2.2-1.1.8-1.6 1.4-1 1.4.5 0 .3.4-.4.8-.7.5-1 1.6-.6 2.5.5 1.3 1.9 1.7 5.9 1.7 3.6 0 5.5.4 5.8 1.4.6 1.5-1.2 2.6-4.4 2.6-1.1 0-1.9.7-1.9 1.7 0 1.5.2 1.6 1 .3 1.1-1.8 1.1-2.2 1.3 8.9.1 4.1.7 7.6 1.2 7.8.7.2.9-2.2.7-6.8-.5-8.1 1.2-13.2 3.3-10.2 1 1.3 1.2 1.1 1.3-1.8.1-4-1-4.9-6.5-4.9-3.9 0-4.3-.3-4.3-2.4 0-2.2.3-2.3 4.8-2.1 2.6.2 4.2.1 3.5-.2-.7-.2-.9-1.1-.6-1.9.4-1.2.1-1.2-2.3.1-2.7 1.4-5.8 1-3.4-.5.7-.4 0-1.2-2.1-2l-3.2-1.4 2.2-1.7c1.2-1 2.9-1.5 3.8-1.2 1.1.4 1.4.2.9-.5-.4-.7-.2-1.2.3-1.2.6 0 1.1.4 1.1 1 0 1.9 1.6 1 1.7-1 .1-1.1-.1-2-.5-2s-.6-3-.6-6.7c.2-5.8.1-6.1-.5-2.3-.6 4.3-.7 4.2-1.4-3.6-.5-5-.4-9 .2-10.7.9-2.4 1.6-2.7 5.9-2.7 2.7 0 5.7.7 7 1.6 1.2.8 2.2 1.1 2.2.6 0-.6.9-.8 2-.5 1.1.3 2 .9 2 1.4 0 .5.4.9.9.9s.7-.9.4-2.1c-.3-1.1-1.1-1.8-1.9-1.5-.7.3-1.6.1-1.9-.4-.3-.5-1.3-.6-2.1-.3-1.4.5-1.5.3-.5-1.5 1.4-2.6-.3-3-1.8-.5-1 1.7-1 1.7-1.1 0 0-1.1-.8-1.7-2.2-1.7-2.1 0-2.1 0-.2 1.6 1.9 1.5 1.8 1.5-.3 1.1-1.3-.3-3.8-.1-5.8.3s-3.5.4-3.5-.1 1.3-.9 2.9-.9c1.7 0 3.3-.5 3.6-1 .3-.6-.3-1-1.3-1-3 0-3.6-2.9-.7-3.6 1.3-.3 2.9-.3 3.6.2.8.4.9.3.5-.4s-1.3-1.2-2-1.2c-.8 0-1.1-1.1-.8-3.4l.4-3.4-5.9-.5c-3.2-.4-7.6-.5-9.8-.3-2.2.1-4.5-.1-5.1-.6-.8-.5-1.6.2-2.4 2.2zm3 .4c0 .3-.4.8-1 1.1-.5.3-1 .1-1-.4 0-.6.5-1.1 1-1.1.6 0 1 .2 1 .4zm19 .6c0 .5-.4 1-1 1-.5 0-1-.5-1-1 0-.6.5-1 1-1 .6 0 1 .4 1 1zm-6.7 6.7c-.7.2-2.1.2-3 0-1-.3-.4-.5 1.2-.5 1.7 0 2.4.2 1.8.5zM214 200c0 .5-.2 1-.4 1-.3 0-.8-.5-1.1-1-.3-.6-.1-1 .4-1 .6 0 1.1.4 1.1 1zM159.5 143c-.3.5-.1 1.8.4 2.7.9 1.6 1 1.4 1.1-1 0-2.8-.5-3.4-1.5-1.7zM184 142.5c-.1.5-.2 1.4-.1 1.9.1.4-.5 1.3-1.4 2-1.4 1-1.5 2.4-.7 10.1l.9 9 .2-7.8c.1-6.6.4-7.7 1.9-7.8 1.1-.1.9-.4-.8-.9-2.4-.8-2.4-.8-.2-.9 3.1-.1 4 2.7 3.4 11.6-.3 4-.1 7.3.4 7.3s1-4.9 1-10.9c0-6.1-.2-10.9-.5-10.9-2 .2-3-.4-3.4-2-.3-.9-.6-1.3-.7-.7z"/><path d="M186 143c0 .5.5 1 1.1 1 .5 0 .7-.5.4-1-.3-.6-.8-1-1.1-1-.2 0-.4.4-.4 1zM154.1 152l.1 5.5.9-4.5c.5-2.8.5-4.8-.1-5.4-.7-.7-1 .9-.9 4.4zM230.1 149.6c0 1.1.3 1.4.6.6.3-.7.2-1.6-.1-1.9-.3-.4-.6.2-.5 1.3zM161 149.7c0 .6-.3 1.9-.7 2.9-.5 1.3-.3 1.6 1 1.1.9-.3 1.7-.2 1.7.4 0 .6.4.8.9.5.5-.4.7.3.4 1.4-.3 1.1-1.3 2-2.2 2.1-1.2 0-1 .3.6 1.1 1.2.6 2.4 1.8 2.7 2.7.2.9.4-.2.3-2.4 0-2.2.3-4.8.7-5.8.7-1.5-.3-2.3-1.9-1.5-.2.2-1.1-.6-1.9-1.7-.9-1.1-1.6-1.5-1.6-.8zM176.2 156.5c-.1 1.9.3 3.5.8 3.5s.7-1.4.5-3.1c-.5-4.4-1.2-4.5-1.3-.4z"/><path d="M155.6 157.7c-.4 1.8-1.2 3.3-1.8 3.3-.6 0-.8.7-.5 1.5.4.8.2 1.7-.4 2-.5.4-1.1 0-1.4-.7-.4-.8-2.9-1.4-7.4-1.6-6.8-.3-6.8-.3-6.8 2.2 0 2.7.6 3.2 2.3 1.8.5-.5 4.7-.6 9.4-.2 4.7.3 8.6.5 8.8.4.2-.1.2-1.5 0-3.1l-.4-2.8-1.1 2.5c-1 2.2-1.2 2.3-1.2.4-.1-1.1.4-2.5 1-3.1.6-.6.9-2.1.7-3.4-.3-2.1-.5-2-1.2.8zM161.5 156c.3.5.8 1 1.1 1 .2 0 .4-.5.4-1 0-.6-.5-1-1.1-1-.5 0-.7.4-.4 1zM196.8 157.7c.7.3 1.6.2 1.9-.1.4-.3-.2-.6-1.3-.5-1.1 0-1.4.3-.6.6zM209.5 159.5c.1 1.1.3 2.8.4 3.7.1 2.5 2.1 2.3 2.1-.2 0-1.1-.4-2-1-2-.5 0-1-.5-1-1.1 0-.6.7-.9 1.5-.5.9.3 1.5 0 1.5-.9 0-.7-.8-1.3-1.9-1.2-1.2.1-1.7.8-1.6 2.2zM172 159.9c0 .5.6 1.1 1.3 1.4.8.3 1.4 2.5 1.6 5.8.3 7.1 1.1 7.7 1.1.9 0-6.6.9-6.2 1.2.5.1 3-.3 5-1 5.3-.7.2-1.2 2.3-1.2 4.8 0 2.8.4 4.3 1 3.9.6-.4 1 .5 1 2s-.4 2.4-1 2c-.6-.4-1 1.6-1 5.2 0 6-1.2 9.5-2.4 7.4-1.1-1.7-2.2-1.3-2.2.9 0 1.7.7 2 4.3 2 2.4 0 4.3-.5 4.3-1.1 0-.5-.4-.8-.9-.4-.5.3-1.2.1-1.5-.4-.3-.5.1-1.2.9-1.5 1.3-.5 1.6-2.4 1.4-10.6-.1-8.7-.3-9.8-1.5-8.3-1.8 2.4-1.7 1.5.2-3.8 2.5-7.2.1-16.9-4.3-16.9-.7 0-1.3.4-1.3.9zm4.7 37.3c-.3.8-.6.5-.6-.6-.1-1.1.2-1.7.5-1.3.3.3.4 1.2.1 1.9z"/><path d="M161.8 165.7l-.3 4.8-12.3-.2c-9-.2-12.2.1-12 .9.7 2 4 3.5 4.5 2 .6-1.7 2.3-1.5 2.3.3 0 1.9-10.6 2.2-11.3.2-.3-.7-.6-.5-.6.5-.1 1.1-.9 1.8-2.2 1.8-1.9 0-2 .4-1.3 4.2.4 2.4.7 6.8.5 9.8-.2 5.8 1.4 6.2 2.2.5.3-1.9.4-1.4.3 1.2-.1 2.4.2 4.3.6 4.3.5 0 .7-3.3.7-7.3-.1-3.9-.3-6.4-.6-5.5-.7 2.7-2.1 2.1-1.9-.7 0-1.4.6-2.5 1.3-2.5.7 0 1-.6.7-1.4-.6-1.7 2.4-2.6 9.2-2.6 4.6 0 5.1-.2 5-2.3-.1-2.2.1-2.2 9.7-1.9 8.3.2 9.7 0 9.7-1.3 0-.9-.4-1.3-1-1-.6.4-1-1.2-1-3.9 0-6.1-1.8-5.9-2.2.1zM231 170.9c0 10 0 10.1 2.4 10.1 1.3 0 2.7.6 2.9 1.2.3.8.6.7.6-.4.1-.9-.4-2-.9-2.3-.6-.3-.8-1.8-.5-3.3.3-1.5.2-2.1-.1-1.5-1 2.2-3.4-1.3-3.3-4.9l.1-3.3 1.3 3.5 1.3 3.5-.1-3.8c0-2.3-.6-4.1-1.4-4.4-.8-.3-1.2-1.2-.9-1.9.3-.7.1-1.6-.4-1.9-.6-.4-1 3.3-1 9.4zM221 163.7c0 1.5-.2 1.6-1 .3-.7-1.1-1-.5-1 2.2 0 2.1.4 3.8.9 3.8s.7-.8.4-1.8c-.2-1 .3-2.4 1.1-3.1.9-.8 1.6-1 1.6-.5s.5.2 1-.6c.7-1.2 1.1-1 1.9 1l1 2.5v-2.8c.1-2.4-.3-2.7-2.9-2.7-2.2 0-3 .5-3 1.7zM170.2 165.5c0 1.6.2 2.2.5 1.2.2-.9.2-2.3 0-3-.3-.6-.5.1-.5 1.8zM165.1 165.6c0 1.1.3 1.4.6.6.3-.7.2-1.6-.1-1.9-.3-.4-.6.2-.5 1.3zM183.2 169c0 1.4.2 1.9.5 1.2.2-.6.2-1.8 0-2.5-.3-.6-.5-.1-.5 1.3z"/><path d="M224.8 175c.2 4.1.6 8.2.9 9 .4.8.5 2.1.4 2.7-.3 2.1 1.4 1.4 2.4-.9.6-1.4 2.2-2.6 4-2.9 2.3-.5 2.5-.7.8-.8-1.3 0-2.5 0-2.6.1-.2.2-1.1-.3-2-1.1-1.2-.9-1.7-2.9-1.7-6.3 0-2.7-.4-4.7-.9-4.3-.5.3-1.1-.3-1.3-1.2-.3-1-.3 1.6 0 5.7zM187.7 169.7c-.3.5-.1 1.7.4 2.8.7 1.7.8 1.7.8-.8.1-2.7-.4-3.4-1.2-2zM123.2 174c0 1.4.2 1.9.5 1.2.2-.6.2-1.8 0-2.5-.3-.6-.5-.1-.5 1.3zM169.8 174.2c-.5 1.2-1.8 1.8-3.8 1.8-2.8 0-3 .2-1.9 2.1.6 1.2.7 1.9.1 1.5-1.4-.9-2.2 4.6-2 14.3 0 4.7.3 7.1.5 5.3.2-1.7.8-3.2 1.4-3.2.5 0 .9-.5.9-1.1 0-.5-.4-.7-1-.4-.6.4-1-1.4-.9-4.7 0-3.9.3-4.8.9-3.3.7 1.6.9 1.3.7-1.5-.2-2.6.2-3.5 1.6-3.8 1.3-.3 1.7.3 1.7 2.7 0 1.6.5 3.3 1 3.6.8.5.7 1.2-.1 2.2-1 1.2-1 1.6 0 2.3.8.4 1 1.3.7 1.9-.4.6-.2 1.1.3 1.1.6 0 1.1-1.8 1.1-4s-.4-4-1-4c-.5 0-1-.9-1-2.1 0-1.1.5-1.7 1-1.4.6.3 1 .1 1-.4 0-.6-.5-1.1-1-1.1-.7 0-.7-.7 0-2 .6-1.2 1-3.3.8-4.8-.2-2.2-.4-2.4-1-1zm-.8 3.8c1.1-1.7 1.3-1 .4 1.4-.5 1.3-.9 1.4-2 .5-.8-.6-1.4-1.7-1.4-2.3 0-.6.5-.4 1 .4.9 1.3 1.1 1.3 2 0zM183.2 175c0 1.4.2 1.9.5 1.2.2-.6.2-1.8 0-2.5-.3-.6-.5-.1-.5 1.3zM188.3 176.4c.3.8 0 2.2-.8 3.2-1.1 1.6-1.5 1.6-2.9.4-1.6-1.2-1.7-.4-1.4 11.8l.3 13.2-2.5.9c-2.1.8-1.9.9 1.7.8 2.3-.1 4.1-.4 4.1-.7-.2-2.6.4-3.3 1.3-1.5.6 1.3.7-.4.4-5.5-.3-4.1-.5-9-.5-10.8 0-1.7-.4-3.2-1-3.2s-.8.4-.5 1c.3.6-.1.7-1 .3-1.2-.4-1.3-.8-.5-1.3.7-.4.9-1.3.6-1.9-.4-.6-.1-1.1.8-1.1.8 0 2-.8 2.5-1.8.7-1.2 1-1.3 1.1-.3 0 .8-.8 2-1.7 2.7-1.6 1.2-1.3 1.3 2.4.8 3.4-.5 4.4-.3 4.9 1 .3.9.1 2.3-.6 3.1-1.1 1.3-.9 1.5 1.1 1.3 2.4-.3 2.4-.2 2.7 9.4.1 5.4.6 9.8 1 9.8s.6-5.8.4-13c-.2-7.5-.7-13-1.3-13-.5 0-.7 1.2-.3 2.7.4 1.6.3 2.4-.2 2-.5-.5-1-1.3-1-1.8-.1-.5-.2-1.3-.3-1.8 0-.5-1.3-1.1-2.8-1.3-2.1-.2-2.9-1-3.7-3.6-.5-1.7-1.3-3.2-1.9-3.2-.5 0-.7.6-.4 1.4zm-.3 21.9c0 1.6-.6 3.5-1.4 4.2-1.2 1.2-1.5 1.1-2-.8-.9-3.3-.7-4.9.4-4.2.5.3.6 1.3.3 2.2-.4 1.1-.3 1.4.5.9.7-.4 1.2-1.8 1.2-3.2 0-1.4-.4-2.2-1-1.9-.6.3-.7-.1-.3-1 .8-2.3 2.3.1 2.3 3.8zM240.2 178c0 1.9.2 2.9.5 2.2.2-.6 1-.9 1.6-.5.9.5.9.3.1-.8-.6-.8-1.4-2.1-1.7-2.9-.3-.8-.5.1-.5 2zM204 181.2c0 1 .5 1.8 1 1.8.6 0 1 1 1 2.2 0 1.9-.2 2-1 .8-.7-1-1 .6-1 5.6 0 5.3.3 7.1 1.4 7.1 1.1 0 1.4-2.2 1.4-9.7.1-7.8-.2-9.7-1.4-9.7-.7 0-1.4.9-1.4 1.9zM137.5 180.9c-.3.6 1 .8 3.2.5 4.9-.6 5.5-1.4 1-1.4-2 0-3.8.4-4.2.9zM147 180.6c3.6.7 15 .9 15 .2 0-.4-3.7-.7-8.2-.7-4.6.1-7.6.3-6.8.5zM241.1 183.8c-.1 1.4-1 2.6-2.3 3.1-1.9.7-1.7.9 1.4.8 3-.1 3.5-.4 2.9-1.6-.5-.9-1.1-2.3-1.4-3.1-.3-1-.6-.7-.6.8zM137 184.1c0 .5.5.7 1 .4.9-.6 1.5.8 1.1 2.9-.1.4 1.1.5 2.6.2 2.1-.5 2.4-.4 1.3.4-1.2.8-1.2 1 .6 1 1.1 0 2.4-.4 3-1 1.8-1.8 5.4 0 5.5 2.9 0 1.4.2 3.7.4 5.1.2 1.4.6 7.6.9 13.8.3 6.3.8 11.8 1.2 12.3.3.5-.1.9-.8.9-.9 0-.9.3.2 1 1.3.8 1.3 1.1.1 2.2-1 1-1.2 1-.7 0 .5-.8 0-1.2-1.4-1.2-1.2 0-1.9-.3-1.7-.8.3-.4-2.8-.7-6.9-.8-4 0-7.1.3-6.8.8.3.4 2 .9 3.7.9 2.3.1 1.9.4-1.8.9-5.2.7-7.5.4-7.5-1.1 0-1.2 1.4-1.1 2.7.2.7.7 1.2.3 1.7-1.6.8-3.2-.1-4.6-1.5-2.5-.9 1.3-1 1.2-.6-.2.3-.9.1-1.9-.6-2.1-.7-.2-.8-.8-.4-1.3s1.2-.2 1.7.5c.6 1 2.9 1.4 7.6 1.4 7.2-.1 8.2-.8 8.3-5.8.1-1.7-.1-1.7-.9-.5s-1 1.2-1-.5c0-1.1-.2-3.8-.5-6-.4-3.3-.3-3.6.5-1.5s.8 1.8.4-1.5c-.2-2.2-.5-5.7-.6-7.8-.1-3.3-.4-3.7-2.2-3.1-1.7.6-1.9.4-.9-.7 1-1.2.8-1.5-.7-1.6-1.7-.2-1.9.7-1.9 11.9 0 6.6.3 11.7.7 11.4.3-.4.5-4.7.3-9.5-.1-4.9.1-9.1.6-9.4.4-.3.7 3.3.5 7.9-.2 4.6.1 8.4.6 8.4.4 0 .7-1.5.5-3.3-.3-2.6-.1-2.8.6-1.2 1.3 2.7 1.3 6.8.1 6-.5-.3-1 0-1 .8s-1.2 1.8-2.7 2.2c-1.5.3-3.2 1.2-3.6 1.8-.6.8-.7.7-.4-.3.2-.8.1-3.5-.3-6-.5-3-.8-3.6-.9-1.7 0 1.5-.8 3-1.6 3.3-2.2.9-1.8 2.7.5 2.1 1.7-.4 1.8-.2.9 1.4-.9 1.8-1.1 1.8-2.6.4-1.1-1.2-1.6-3.8-1.7-9.8-.1-6.9-.4-8.2-1.8-8.5-2-.4-2.5 2.4-.6 3 1.2.4 1.3 13.6.2 27.2-.4 4.5-.2 6.6.4 6.2 1.2-.7 6.5 3.8 5.5 4.7-.3.4 1 .7 2.9.7 2.4 0 3.8.5 4.2 1.6.4.9.9 1.4 1.3 1 .3-.3-.2-1.6-1.3-2.8-1.8-2-1.8-2.1-.1-1.5 1.3.5 1.7.3 1.5-.5-.3-.7-1.7-1.4-3.1-1.6-2-.2-2.7.1-2.7 1.4 0 1.1-1.2.4-4.1-2.5-2.4-2.4-3.9-4.7-3.6-5.5.7-1.7 13.5-3.2 19.8-2.3 2.5.3 4.4.1 5.2-.7.7-.7 1.8-1.1 2.5-.8.6.2 1.2-.1 1.2-.7s-.9-1.1-2-1.1c-2.2 0-2.7-1.4-3.4-11.3-.4-5.2-.2-6.7.9-6.7.7 0 1.6.8 1.8 1.7.3 1.2.5.9.6-.8.1-1.6-.5-2.9-1.4-3.3-1.1-.4-1.5-1.9-1.3-5.8l.2-5.3.3 5.2c.6 8.2 1.8 6.3 2.1-3.3.2-4.7-.1-8.3-.6-8.1-.4.3-1.4.2-2.2-.3-.9-.5-1.9-.5-2.7.2-.9.7-1.3.7-1.3-.1 0-.8-1.8-1.1-5.2-1-3.3.2-5.3-.2-5.6-.9-.5-1.5-3.2-1.6-3.2-.1zm10 2.3c0 .3-.4.8-1 1.1-.5.3-1 .1-1-.4 0-.6.5-1.1 1-1.1.6 0 1 .2 1 .4zm7 2.1c0 .8-.2 1.5-.4 1.5s-.6-.7-1-1.5c-.3-.8-.1-1.5.4-1.5.6 0 1 .7 1 1.5zm3 2.1c0 .8-.4 1.4-1 1.4-.5 0-1-.9-1-2.1 0-1.1.5-1.7 1-1.4.6.3 1 1.3 1 2.1zm-10.3 7.6c-.3.8-.6.5-.6-.6-.1-1.1.2-1.7.5-1.3.3.3.4 1.2.1 1.9zm1 20c-.3.7-.5.2-.5-1.2s.2-1.9.5-1.3c.2.7.2 1.9 0 2.5zM143 217c0 .5-.5 1-1.1 1-.5 0-.7-.5-.4-1 .3-.6.8-1 1.1-1 .2 0 .4.4.4 1zm5.7 8.6c-.3.3-1.2.4-1.9.1-.8-.3-.5-.6.6-.6 1.1-.1 1.7.2 1.3.5z"/><path d="M192.3 185.7c.9.9 2 1.3 2.4.9.4-.4.1-1.1-.7-1.6-2.5-1.6-3.5-1.1-1.7.7zM137.1 195.7c.1 11.3.7 10.6 1.1-1.5.2-4.5 0-8.2-.4-8.2-.5 0-.7 4.4-.7 9.7zM229 189c-1.2 1.2-2 1.5-2.3.7-.2-.6-.6-.2-.9.9-.5 1.8 0 2 3.6 2.1 2.3.1 3.3-.1 2.3-.4-2.2-.6-1.8-3.8.5-3.8 2.5 0 3-1.1.7-1.2-1.1-.1-2.9.7-3.9 1.7zM192.1 191.1c0 2 .2 3.9.5 4.2.4.3.7 2.9.8 5.6.2 8.2 1.3 6.8 1.4-1.9.1-4.4-.3-8-.8-8-.4 0-1.1-.8-1.3-1.8-.3-.9-.5-.1-.6 1.9zM168.1 198.6c0 1.1.3 1.4.6.6.3-.7.2-1.6-.1-1.9-.3-.4-.6.2-.5 1.3zM229.1 198.7c.8.9 1.3 2.6 1.2 3.7-.1 1.2 0 1.5.3.8.3-.6 1.2-1.2 2-1.2 1.1 0 1 .5-.6 2.2-2.2 2.3-2.6 5.4-1 7.8.7 1.2 1 1.2 1 .1 0-.7.6-1.1 1.5-.7.9.3 1.5 0 1.5-1 0-.8-.4-1.2-1-.9-.6.4-1-.6-1-2.4 0-1.6.6-3.1 1.3-3.4.9-.3.9-.7-.1-2-2.1-2.5-.6-3.6 4.4-3.5 2.5 0 4.8-.2 5.1-.6.4-.3-2.1-.6-5.4-.6-4 0-6.3.4-6.6 1.2-.4 1-.6 1-.6 0-.1-.6-.8-1.2-1.7-1.2-1.4 0-1.5.2-.3 1.7zm2.6 11.5c-.3.8-.6.5-.6-.6-.1-1.1.2-1.7.5-1.3.3.3.4 1.2.1 1.9zM120.2 199.7l-7.4.4.7 2.7c.4 1.5.7 4.4.6 6.5-.1 2.3.2 3.6.8 3.3.5-.3.7-1.5.4-2.6-.4-1.5 0-2 1.6-2 2 0 2.1.5 2.1 9 0 4.9.4 9 .8 9s.7-4.2.5-9.3c-.3-10 1-15.5 3.2-13.7.8.7 1.5.7 1.9.1.3-.5 0-1.2-.6-1.4-.8-.4-.7-.6.4-.6.9-.1 1.9.5 2.1 1.1.3.7.6.3.6-1 .1-1.2 0-2.1-.1-2-.2.1-3.6.4-7.6.5zm.3 3.4c-.3.4-1.2.6-2 .2-.8-.3-1.5 0-1.5.6s.5 1.1 1 1.1c.6 0 1 .6 1 1.2 0 .7-1.1.1-2.3-1.2-2.1-2.1-2.2-2.6-.8-3.1 2-.8 5.2.1 4.6 1.2zM204.2 202.9c.4 3.5 3.8 3.8 3.8.2 0-2-.5-2.7-2-2.7-1.6 0-2 .6-1.8 2.5zM164.1 201.5c-.5 2.2-.9 11.9-.4 10.2.3-1.2 1-1.6 2-1.3 1.2.5 1.3.3.5-.6-.6-.7-1.2-3.1-1.5-5.3-.2-2.2-.5-3.6-.6-3z"/><path d="M125.7 204.7c-1.1 1.1-.8 5.3.4 5.3.6 0 .9-.6.6-1.3-.2-.6 0-2 .5-3 .8-1.6-.2-2.4-1.5-1zM171.3 206.7c1.5.2 3.7.2 5 0 1.2-.2 0-.4-2.8-.4-2.7 0-3.8.2-2.2.4zM205.5 207c-2.7.6-2.5.7 2 1.1 4.7.5 6.4.4 5.4-.5-1.1-.9-4.7-1.3-7.4-.6z"/><path d="M214 208.6c0 1.7-.4 2.3-1.2 1.8-1-.6-1-.4 0 .7.6.7 1.2 3.1 1.2 5.3 0 5.8.6 4.1 1.3-3.7.4-4 .2-6.7-.3-6.7-.6 0-1 1.2-1 2.6zM239.2 211.5c-.1 3.8.1 4.3 1.6 3.8 1.5-.6 1.6-.5.2 1.2-1.7 2.1-1.7 2.4.2 3.6.9.6.7.9-.8.9-2.8 0-3.6-1-2.3-2.7.9-1 .7-1.3-1-1.3-1.5 0-2.1-.6-2.1-2.1 0-1.1-.4-1.7-1-1.4-.6.4-.8 1.5-.5 2.6.4 1 .2 1.9-.4 1.9-.5 0-1.2-1-1.4-2.3-.3-1.6-.5-1.3-.6 1 0 1.8.4 3.4.9 3.4.6.1 1.4.2 1.9.3.5 0 1.3.4 1.7.8 1.2 1.3 6.4.9 6.9-.5 1-2.9 1.3-12.7.3-12.7-.5 0-.7 1-.4 2.2.4 1.6.2 1.4-.6-.5-1.7-3.8-2.3-3.4-2.6 1.8zm1.5 1.7c-.3.8-.6.5-.6-.6-.1-1.1.2-1.7.5-1.3.3.3.4 1.2.1 1.9zM193 208.2c0 .4.4 1.8 1 3.3.7 1.9.7 2.4-.1 1.9-.7-.4-1-.1-.7.7.2.8 1.8 1.5 3.4 1.7 1.6.2 3.4.8 3.9 1.4.7.8.5.9-.7.5-1.5-.5-1.8 0-1.8 2.9 0 2.4.4 3.3 1.2 2.8.8-.5 1 2.6.5 12.4-.5 8.6-.4 13.2.3 13.2.5 0 1-.5 1-1 0-.6 1-1 2.3-1.1 2.1 0 2.1-.1.2-.9-1.6-.7-1.7-.9-.3-.9 1.5-.1 1.5-.5.6-3.4-.6-1.7-1.5-3.6-1.9-4.2-.5-.5-.8-5-.7-10l.2-9 .6 8.5.7 8.5-.1-9.3c-.1-5.5.3-9.2.9-9.3.6 0-.1-.5-1.4-1-1.5-.6-2.1-1.5-1.7-2.4.3-.8.1-1.5-.4-1.5-.6 0-1 .7-1 1.5 0 1.8-2 2-2 .2 0-1.2-3.9-6.7-4-5.5zm7.7 36.5c-.3 1-.5.4-.5-1.2 0-1.7.2-2.4.5-1.8.2.7.2 2.1 0 3zM190.5 211c.3.5-1.3.7-4.3.3-2.9-.3-5.7-.1-6.8.5-1.5.9-.8 1.1 3.8 1.2 3.1 0 6.3.3 7.2.6 1.2.4 1.6 0 1.6-1.5 0-1.2-.5-2.1-1.1-2.1-.5 0-.8.4-.4 1z"/><path d="M225.2 219.3l.1 9.9 3.1-.7c1.7-.3 5.9-.7 9.3-.8 7.4-.3 9.6-1.7 2.7-1.8-7-.1-8.1-.4-11.3-3.5-2.4-2.2-2.8-3.3-2.4-6 .3-1.7 0-4-.6-5-.8-1.5-1 .4-.9 7.9zm3.3 5.6c.3.5.1 1.2-.5 1.6-.5.3-1-.1-1-.9 0-1.8.6-2.1 1.5-.7zM125.7 216.9c-.4 3.5-.6 8.9-.6 12 .1 4.5.3 3.8 1-3.9 1.1-11 .7-17.6-.4-8.1zM167 212c-1.1.7.2 1 4.3 1 3.6 0 5.6-.4 5.2-1-.8-1.3-7.5-1.3-9.5 0zM159 214.2c0 .4.7.8 1.5.8s1.5-.4 1.5-.8c0-.5-.7-.9-1.5-.9s-1.5.4-1.5.9zM114 215.4c0 .9.5 1.6 1 1.6.6 0 1-.4 1-.9 0-.6-.4-1.3-1-1.6-.5-.3-1 .1-1 .9zM164 214.6c0 .5.7 1.9 1.5 3 .8 1 1.5 1.4 1.5.8 0-.5-.7-1.9-1.5-3-.8-1-1.5-1.4-1.5-.8z"/><path d="M207.7 215.8c-1 .2-1.4.8-1 1.5.4.7.6 6.2.4 12.3-.2 7.4.1 11.4.8 11.9.6.3.9 1 .6 1.5-.7 1.1 2.4 2.2 4.7 1.5 1-.4 1.6-1.1 1.3-1.6-.9-1.4.3-1.1 3 .7 2.1 1.4 2.5 2.5 2.6 6.8.1 2.8.5 6.2.9 7.6l.8 2.5.1-2.6c.1-1.8.8-2.8 2.2-3.2 1.8-.5 1.9-.8.9-2.8-1-1.7-.9-2.3.1-3 .9-.5 1.7-.3 2.2.6 1.3 2.5 8.9 1.9 11.4-.8 2.3-2.3 3.2-9.6 1.8-13.1-.5-1.2-.3-2.1.6-2.7.9-.5-1.3-.9-5.8-.9-4.2 0-7.3-.4-7.3-1s-.4-1-.8-1c-.5 0-.9.7-.9 1.5 0 1.6 1.8 1.9 8 1.6 3-.2 3.6 0 3.1 1.3-.4 1.1-.1 1.6 1 1.6 1.7 0 1.8.5.7 3.5-.7 1.7-.8 1.7-1.5-.8-.5-2-1.3-2.7-3-2.7-1.4 0-3.3-.3-4.3-.6-1.2-.5-1.5-.4-.8.4.6.6 2.1 1.2 3.5 1.4 1.4.1 2.6 1 2.8 2 .3 1.3-1 1.7-7.5 2.3-4.3.4-8.5.9-9.4 1.1-1.7.5-3.3-2.1-2.3-3.7.3-.5 2.8-.9 5.6-.9 4 0 4.9-.3 4.4-1.5-.3-.8 0-1.5.6-1.5s.9-.3.5-.6c-.3-.4-2-.2-3.6.4-1.7.6-3 .8-2.9.4.1-.4-.4-2-1-3.5-1.7-4-1.3-5.8.4-2.2 1.3 2.6 1.4 2.7 1 .5-.3-1.4-.6-2.9-.6-3.3 0-.5-.9-.5-2-.2-1.2.4-2.8.1-3.7-.7-1.5-1.2-1.6-.8-1.1 3.7.6 6.8-.3 12-2.2 12-1.2 0-1.6-2.3-2-13-.5-11.8-.7-13-2.3-12.7zm1 17.4c-.2 1.3-.4.3-.4-2.2s.2-3.5.4-2.3c.2 1.3.2 3.3 0 4.5zm8.3-4.7c1.1 1.3 1 1.4-.4.9-.9-.3-1.6-1-1.6-1.5 0-1.3.6-1.1 2 .6zm1.2 7.2c-2.1 1.7-2.5 1.1-1.1-2.3 1-2.7 1.2-2.7 1.9-.9.5 1.4.3 2.4-.8 3.2zm20.5 8.2c1.5.8.4 2.8-1.7 3.1-.8.1-4.3.2-7.7.1-5.5-.1-6.3-.3-6.3-2s.8-2.1 4.8-2.3c4.9-.4 8.8 0 10.9 1.1zM235 249c1.8 1.2.2 1.2-2.5 0-1.3-.6-1.5-.9-.5-.9.8 0 2.2.4 3 .9zM159.7 216.7c-1.7 1.6-.5 3.3 2.3 3.3s3-.2 2-2c-1.1-2-3.1-2.6-4.3-1.3zm3.3 1.3c0 .5-.5 1-1.1 1-.5 0-.7-.5-.4-1 .3-.6.8-1 1.1-1 .2 0 .4.4.4 1zM190.7 225.5c.1 5.2.7 10.3 1.2 11.3.6 1.1.8 2.2.4 2.5-.8.9 1.7 15.9 2.9 17.4 1.5 1.8 5.8 1.6 5.8-.2 0-.8.8-1.5 1.8-1.6 1.1 0 1.2-.2.4-.6-.7-.3-2.2.3-3.3 1.3-2.2 2-3.7 1.1-4.4-2.5-.9-4.8-1.6-17-1.5-26.4.1-6.7-.3-9.7-1.1-9.7-.6 0-.9.7-.5 1.5.3.8.3 1.5 0 1.5-.2 0-.8-.9-1.2-2-.4-1-.6 2.3-.5 7.5zm2 7.2c-.3 1-.5.2-.5-1.7s.2-2.7.5-1.8c.2 1 .2 2.6 0 3.5zM169.8 217.7c-1 .2-1.8.9-1.8 1.5 0 .5.7.7 1.6.4.9-.3 2-.6 2.5-.6s.9-.5.9-1c0-1-.3-1.1-3.2-.3zM174 218c0 .5 1.2.9 2.8 1 5 .1 7.7.5 8.7 1.2.6.4 1.1-.1 1.1-1 0-1.4-1.2-1.7-6.3-1.8-3.5-.1-6.3.2-6.3.6zM113.1 221.2c0 .7.4 2.2.9 3.3.7 1.7.9 1.5.9-1.3.1-1.7-.3-3.2-.9-3.2-.5 0-1 .6-.9 1.2z"/><path d="M183 221.6c0 .8.5 1.2 1 .9.6-.3 1-1 1-1.6 0-.5-.4-.9-1-.9-.5 0-1 .7-1 1.6zM214.1 222.6c0 1.1.3 1.4.6.6.3-.7.2-1.6-.1-1.9-.3-.4-.6.2-.5 1.3zM168 224.1c0 .5-1.6.7-3.5.5-1.9-.3-3.5-.1-3.5.3 0 .5 2.8 1.2 6.2 1.5 8.4 1 10 2 9.7 5.9-.5 5 1.5 4.7 2.1-.3.3-3.1 1-4.6 2.2-4.8.9-.2 1.8.4 2 1.4.2 1.4.6 1.3 2.3-.7 1.5-1.8 1.5-2 .3-1-1.1.8-1.8.9-1.8.3 0-.6.5-1.4 1-1.7 2.5-1.5.3-2.2-8-2.2-4.9-.1-9 .3-9 .8zm12.8 1.6c-1 .2-1.8.9-1.8 1.4 0 .5-.5.9-1.1.9-.5 0-.8-.4-.4-.9.3-.6-1.4-1.2-3.7-1.4-3-.2-2.3-.4 2.2-.4 3.6 0 5.7.1 4.8.4zM198.3 230.5c0 3.3.2 4.5.4 2.7.2-1.8.2-4.5 0-6s-.4 0-.4 3.3zM184.8 230.4c-2.2 1.6-2.4 3-.4 2.3 1-.4 1.3-.1.9.9-.3.7-.9 1.4-1.4 1.4-1.1 0-1.1 8.7 0 15.3.8 4.7-.5 7.7-2.8 6.3-1.2-.8-2.4-7.7-2.4-13.8 0-2.6-.4-4.5-.9-4.2-1.3.8-.2 12.6 1.6 16.9 1.9 4.4 1.9 4.5.7 4.5-.5 0-1.2-.8-1.5-1.8-.4-1.1-1.7-1.7-3.6-1.8-1.6-.1-2.7.3-2.4.7.3.5 1.7.9 3.1.9 1.5 0 2.3.3 2 .7-.4.3-.2 1.2.5 2 .8 1 .8 1.7-.1 2.6-1 .9-1.1.9-.6-.3.4-1.3-.7-1.4-7.7-1-5.2.3-8.3.9-8.6 1.7-.2.7.1 1.3.7 1.3s2-.6 3.1-1.3c1.7-1 2.2-.9 2.9.2.5.8 1.6 1.1 2.5.8 1-.4 1.9-.1 2.2.8.9 2.3 2.3 1.8 1.6-.7-.3-1.4-.2-1.9.6-1.4.7.4 1.2 2 1.2 3.6 0 1.8.8 3.4 2.1 4.3 1.3.9 1.6 1.7 1 2.2-1.5.9-1.3 1.6 1 4.5 1.7 2 2.9 2.4 6.7 2.2 2.9-.1 4.2.2 3.3.7-.7.5-3.5.7-6.2.6-2.7-.2-4.9.1-4.9.6s-.5.9-1.1.9c-.9 0-.9-.4 0-1.4 1.2-1.4-.3-7.6-1.9-7.6-.5 0-1.1-1.5-1.3-3.3-.2-1.7-.4 2.4-.3 9.3.1 11.1-.1 12.5-1.6 12.8-1.3.3-1.8-.3-1.8-2.2 0-1.4-.4-2.8-1-3.1-.6-.4-1 .5-1 2 0 3 4.3 7.5 7.1 7.5 1.1 0 1.9.7 1.9 1.5s.5 1.5 1 1.5c.6 0 1-.4 1-.9s2.5-1 5.5-1c5.1 0 5.4.2 4.5 2-1.2 2.2-3.2 2.6-2.4.4.4-.8.1-1.5-.5-1.5s-1.1.5-1.1 1.1c0 .8-1.7 1-5 .7-2.7-.3-5-.1-5 .3 0 .5-.5.9-1.1.9-.5 0-.8-.4-.5-.9.4-.5 0-1.2-.6-1.4-1-.4-1-.6 0-.6.7-.1 1.1-.5.7-1.1-1.1-1.7-5.6 1.2-5.3 3.4.3 2 .9 2.1 11.3 2.1 10.3 0 11 .1 11.3 2 .3 1.9-.3 2.1-7 2.4-9.5.3-10.2 1.1-1 1.1 4.7 0 7.5.5 8.5 1.4 1.2 1.2 1.4.7 1.3-3.9-.1-4.2-.4-5.1-1.6-4.7-1.2.4-1.2.2-.3-.8 2.5-2.7.3-4-6.8-4-3.9 0-6.9-.4-6.9-1s-.9-1-2.1-1c-1.1 0-1.8-.4-1.5-.9.3-.4 3.8-.9 7.8-1 4-.1 7.5-.7 7.9-1.2.5-.8.9-.8 1.3 0 .4.6 1.6 1.1 2.7 1.1s2.3.9 2.8 2.2c.5 1.5.8.7.8-3.1l.1-5.2-8.9.3c-7 .2-9 0-9.4-1.1-.3-.8-.2-1.8.3-2.3.8-.8 22.2-1.7 21.7-.8-.1.3.1 1.4.6 2.5.6 1.5.7 1 .5-1.7-.2-2.1.2-3.9.8-4.2.6-.2-3.9-.5-10.1-.5-12.7-.1-13-.4-12.4-8.9.2-2.5-.2-4.2-.8-4.2-.6 0-.8.7-.5 1.5.5 1.1.2 1.3-.9.9-1.6-.6-1.2-3.4.5-3.4.5 0 1.6-1.6 2.4-3.5.8-1.9 1.7-3.5 2-3.5.3 0 .2.5-.2 1.2-.5.7-.2.9.7.6 1.2-.5 1.4.2 1.1 2.8-.3 2.6.1 3.8 1.9 5.4 1.3 1 3.4 1.9 4.6 2 1.2 0 2.4.4 2.7.8.9 1.4-5.8 0-7.6-1.6-1.7-1.4-1.8-1.3-1.8 2.1 0 3 .4 3.7 2 3.7 1.1 0 2-.5 2-1 0-.6 1.2-1 2.8-.9l2.7.1-2.5.8c-2.2.7-2.1.8 1.3.9 2.3.1 3.6-.3 3.2-.9-.3-.6-.1-1 .5-1s.8-.5.4-1.2c-.5-.8.4-.9 3.2-.5 2.7.4 3.4.3 2.4-.3-1.3-.9-1.3-1 0-1.2.8-.1-1.9-.4-6-.7-6.4-.5-7.5-.9-7.4-2.4.2-1.3-.3-1.6-1.7-1.2-1.1.4-1.9.2-1.9-.4 0-.6 1.1-1.1 2.4-1.1 1.3 0 3.2-.3 4.2-.7 1.2-.4 1.5-.3 1 .5s0 1.2 1.3 1.2c1.1 0 2.3-.5 2.6-1 .5-.8 1.1-.7 2.1.1.9.7 3.1.9 6.2.5 3.5-.4 4.3-.3 3.2.5-1.2.9-1.2 1 .4.5 2.4-.8 3.6.9 3.6 5.4 0 3.2.3 3.5 3.3 3.7 1.7.1 4.2.5 5.4.8 2.1.5 2.2.3 1.3-2-.7-1.8-.6-3.2.3-4.7.9-1.6.9-2.2 0-2.5-1.9-.7-1.6-2.3.5-2.4 1.3 0 1.4-.2.2-.6-.8-.3-1.8-1.1-2.3-1.7-.4-.6-.6 1.2-.5 4 .1 5.7-.7 7.7-3 7.2-1.3-.2-1.6-2.3-1.9-11.7-.1-6.3-.7-11.9-1.3-12.5-.7-.7-1 .9-1 4.7 0 5.5-.2 5.9-3 7.1-1.7.7-2.7 1.6-2.3 2 .5.5-.2.5-1.4.2-1.4-.5-2.3-.3-2.3.3s-.8 1.1-1.7 1.1c-1.6 0-1.6-.2-.3-1.1 1.1-.8-1-.9-7.6-.6l-9.2.4.5-2.9c.2-1.7.1-2.8-.4-2.5-.4.3-.9-1.9-1-4.9-.2-4.5 0-5.2 1.2-4.1.7.8 1.1 2.5.8 4-.6 3.2 1.6 5.7 4.9 5.6 1.5 0 1.8-.3.8-.6-3.2-1.2-5-4.1-4.4-7.2.4-1.8.2-3.7-.5-4.5-.7-.8-1.3-4.9-1.4-9-.1-4.2-.1-7.6-.2-7.6 0 0-.8.7-1.7 1.4zm-.1 14.8c-.3.8-.6.5-.6-.6-.1-1.1.2-1.7.5-1.3.3.3.4 1.2.1 1.9zm29.4 18.8c.5 0 .9.8.9 1.7 0 1.4-.4 1.2-2.5-.7-1.9-1.8-2.2-2.6-1.3-3.2.8-.4 1.4-.2 1.6.7.2.8.8 1.5 1.3 1.5zM177 277.9c0 .6-.4 1.3-1 1.6-.5.3-1-.1-1-.9 0-.9.5-1.6 1-1.6.6 0 1 .4 1 .9zm21.7 3.2c-1.4.8-2.2.8-3 0-.8-.8-.3-1.1 1.9-1.1 2.5.1 2.7.2 1.1 1.1zm-19.7 8.4c0 1.4-.4 2.5-1 2.5-1.1 0-1.4-3.3-.3-4.3 1.1-1.1 1.3-.8 1.3 1.8zm15-.1c.8.2-1.3.4-4.7.5-3.5 0-6.3-.2-6.3-.7 0-.7 7.6-.5 11 .2zm-12 1.2c0 .8-.4 1.2-1 .9-.5-.3-1-1-1-1.6 0-.5.5-.9 1-.9.6 0 1 .7 1 1.6z"/><path d="M160 233.5l-.3 4-.7-3.5c-.6-2.8-.8-2-.9 3.9-.1 6.8-.2 7.3-2.1 6.8-1.3-.3-2-.1-1.8.6.5 2.8-1.4 5.8-3.5 5.5-1.3-.2-2.1.2-2 .9.2.7-.6 1.3-1.6 1.3-3 0-5.2-1.1-4.5-2.2.4-.6-.1-.8-1.4-.4-1.1.4-2.3.2-2.7-.4-.3-.5-1.2-1-1.8-1-.8 0-.8.3.2.9 2.1 1.4-.4 5.4-3 4.6-1.1-.4-1.9-.2-1.9.4 0 .6.5 1.1 1 1.1 1.4 0 1.2 2.7-.2 3.3-2.1.9 2.4.5 5.7-.4l3-.8-3.1.2c-2.6.3-3 0-2.6-1.5.2-1 .8-2 1.2-2.3.3-.2 6.6-.5 13.8-.6 11.9-.2 13.2-.4 13.2-2 0-2.7-1.1-5-2.1-4.3-.5.3-.9 0-.9-.5 0-.6.5-1.1 1-1.1.6 0 1-1.4 1-3 0-1.7-.4-3-1-3-1.8 0-1.1-2.6 1.3-4.6 1.2-1 1.9-1.5 1.5-1-.4.5-.1 1.4.6 2.2.8.7 1.7 5 2.1 9.8.4 4.8 1.1 8.6 1.6 8.6s.7-1.5.4-3.3c-1.5-8.6-1.6-10.3-.6-8 1.2 2.7 4.1 3.1 4 .5 0-1-.3-1.2-.6-.4-.2.6-.9 1-1.3.7-.5-.3-.7-1.1-.4-1.8.2-.7-.4-2.2-1.6-3.2-1.1-1-2-2.5-2-3.4 0-1.4.2-1.4 1-.1.8 1.2 1 1.2 1.1-.5 0-1.5.4-1.2 1.5 1.2 1.6 3.7 2.9 4.5 1.8 1-.4-1.2-.7-3.2-.6-4.5.2-2.3-1.2-3-2.3-1.2-.3.5-1.3 1-2.2 1-1.3 0-1.3-.3-.3-1.5 1.1-1.3.8-1.5-1.9-1.5-1.7 0-3 .3-3 .7.1.5 0 1.7-.1 2.8-.2 1.5-.4 1.2-1-1-.7-2.9-.8-2.9-1 1zm.3 11.3c-1.5 1-1.2 6.4.4 5.8.7-.3 1.5-.2 1.7.3.3.4-1.5.8-4 1-3.4.1-4.4-.2-4.4-1.4 0-.8.5-1.5 1.1-1.5.5 0 .7.5.3 1.1-.4.7.3.6 1.7-.2 2-1.1 2.1-1.4.7-1.7-1-.2-1.8-.6-1.8-.9 0-.8 4.5-4.2 5-3.7.2.3-.1.8-.7 1.2z"/><path d="M143 231.9l5.5.6.6 8 .6 8-.1-8.5-.1-8.5-6-.1-6-.1 5.5.6zM233.8 234.7c.7.3 1.6.2 1.9-.1.4-.3-.2-.6-1.3-.5-1.1 0-1.4.3-.6.6zM125 239.2c0 .9 1.4 1.2 5.1.9 6-.4 5.9-.6-.3-1.5-3.7-.6-4.8-.4-4.8.6zM132 245c0 .5.7.7 1.6.3 1-.4 2 .1 2.6 1.1 1 1.8 2.8 1.3 2.8-1 0-.9-1.1-1.4-3.5-1.4-1.9 0-3.5.4-3.5 1zM143.4 247c.5 4.5 1.6 4.9 1.6.7 0-2.1-.4-3.7-1-3.7-.5 0-.8 1.4-.6 3zM130.6 247.7c.7.4 1.4 1.7 1.7 2.8.5 1.6.5 1.5.4-.4-.1-1.4-.9-2.6-1.7-2.8-1-.3-1.1-.2-.4.4zM170.9 247.5c-.4.5-.4 2.5-.2 4.3.6 3.5 2.6 3.9 3.1.6.2-1.5.1-1.6-.7-.5-.7 1.1-1 .6-1.3-2-.2-1.9-.6-3-.9-2.4zM201.6 249.6c-1.1 2.8-.7 3.2 4.4 3.6 3.5.2 5-.1 5-1 0-.6-.7-1.2-1.5-1.2s-1.5-.7-1.5-1.5-.9-1.5-2.1-1.5c-1.1 0-1.8.4-1.5.9.3.5-.1 1.1-.9 1.4-.9.4-1.2.1-.8-.9.3-.7.3-1.4 0-1.4s-.8.7-1.1 1.6zM209 249.1c0 .5.9.9 2 .9s2-.2 2-.4-.9-.6-2-.9c-1.1-.3-2-.1-2 .4zM126.5 254.7c.7 6.4 1.5 6.7 1.5.5 0-2.9-.4-5.2-1-5.2-.5 0-.7 2-.5 4.7zM238.7 251.6c.7.3.9 1.2.6 2.1-.5 1.2-.3 1.4.7.8 1-.6 1.2-.3.8 1.3-.4 1.2-.2 2.2.4 2.2.5 0 .8-1.5.6-3.2-.2-2.4-.8-3.3-2.3-3.5-1.1-.2-1.5 0-.8.3zM255 252.6c0 .8.5 1.2 1 .9.6-.3 1-1 1-1.6 0-.5-.4-.9-1-.9-.5 0-1 .7-1 1.6zM249 256c.2 6 0 6.9-1 4.5-.7-1.5-.8-.8-.6 2.5.4 5-1 7.1-4.6 6.9-1.7-.1-1.9-.2-.5-.6 1.2-.3 1.6-1.1 1.2-2.3-.4-1.3.1-2 1.7-2.6l2.3-.7-2.3-.8c-1.2-.5-2.2-1.3-2.2-1.8s-.7-1.1-1.5-1.5c-.9-.3-1.5 0-1.5 1 0 .8.4 1.3.9.9 1.3-.7 2.4 1.2 1.5 2.6-.4.8-.9.7-1.4-.2-.5-.7-.8.8-.8 3.5v4.8l3-.6c1.7-.3 3.5-.6 4-.6s.7-.4.4-.9c-.3-.5.6-1.2 1.9-1.5 1.4-.4 2.3-1.1 2-1.6-1.2-1.9.7-1 2.4 1.1 1.5 1.9 1.8 2 3 .5 2-2.4 1.1-3-6.4-3.5-1.4-.1-1.6-.4-.7-.9.9-.6 1.1-2.4.6-6.3-.8-6.7-1.6-7.9-1.4-1.9zM109.5 254c-.3.5.1 1 .9 1 .9 0 1.6-.5 1.6-1 0-.6-.4-1-.9-1-.6 0-1.3.4-1.6 1z"/><path d="M246.8 253.6c-.5.4-.8 1.6-.8 2.8 0 1.4.3 1.7 1.1.9.6-.6.9-1.9.7-2.8-.1-.9-.6-1.3-1-.9zM92.3 254.7c.9.2 1.7 1.3 1.7 2.4 0 1 .5 1.9 1.1 1.9.6 0 .9-.8.6-1.9-.4-1.7 0-1.8 3.3-1.4 2.1.3 4.6 0 5.6-.6 1.5-.8.1-1-6.1-1-4.4.1-7.2.3-6.2.6zM208 254.9c0 .6.5 1.3 1 1.6.6.3 1-.1 1-.9 0-.9-.4-1.6-1-1.6-.5 0-1 .4-1 .9zM204.3 255.8c-1.3.2-2.3.8-2.3 1.3 0 .9 3.7.3 4.9-.7.8-.7-.4-1-2.6-.6zM211 257c0 1.1.5 2 1 2 .6 0 1-.9 1-2s-.4-2-1-2c-.5 0-1 .9-1 2zM228.3 256.5c1.8 1.3 1.8 1.3 0 1.8-1 .2.1.3 2.4.3 3.3-.1 4.3-.5 4.3-1.7 0-1.3-1-1.7-4.2-1.7-3.8-.1-4.1.1-2.5 1.3zM254 255.9c0 .5.4 2.2 1 3.6 1.4 3.7 3.2 2.2 1.8-1.5-.9-2.8-2.8-4.2-2.8-2.1zM168.7 256.7c-1.2 1.2-.7 2.2.8 1.7.8-.4 1.5-1 1.5-1.5 0-1.1-1.4-1.2-2.3-.2zM116.8 258c-1.5.4-3 .5-3.3.1-.4-.3-.6.7-.5 2.4.4 5.3.2 5.5-4.5 5.5-3.3 0-4.5.4-4.5 1.5 0 .8-.4 1.5-.9 1.5-.6 0-1-.8-.9-1.8 0-.9-.5-3.1-1-4.7-1-2.8-1-2.7-1.1 2-.1 6.3.9 7.9 4.3 7.3 2.5-.5 3.2.4 2.7 3.4 0 .5.6.8 1.4.8 1.2 0 1.3-.4.5-1.9-.5-1.1-1-3.2-.9-4.8l.1-2.8.8 3.1c1.9 8.2 3.9 8.1 4.5-.2.5-7 .6-7.1 3.2-6.6 2.3.4 3.4 4.2 1.3 4.2-1.1 0-1.3 4.1-.4 11.7.5 3.7 1 5 2 4.6 1-.3 1-1.1.3-3-.8-2.1-.6-3 1-4.7 1.6-1.7 1.9-3.1 1.6-6.1-.4-3-.3-3.5.4-2 .9 1.9 1 1.9 1-.3.1-1.2-.5-2.2-1.3-2.2s-1.7-.7-2-1.6c-.9-2.4-.8-2.6 1.4-1.9 1.7.5 2 .2 1.8-1.9-.3-2.8-1.9-3.2-7-1.6zm5.2.8c0 1.6-3.7 3-5.1 2-1.1-.8-1-.9.4-.4 1.1.3 1.7 0 1.7-.9 0-.8.7-1.5 1.5-1.5s1.5.3 1.5.8zm-10 11.4c0 3.6-.4 3.5-1.4-.5-.4-1.6-.2-2.7.4-2.7.5 0 1 1.4 1 3.2zm8.7-1c-.3.8-.6.5-.6-.6-.1-1.1.2-1.7.5-1.3.3.3.4 1.2.1 1.9zm.3 3.4c0 .8-.8 2.3-1.7 3.2-1.6 1.6-1.6 1.6-.9-.3.5-1.1.9-2.6.9-3.3.1-1.8 1.7-1.5 1.7.4zM145.3 258.7c.9.2 2.3.2 3 0 .6-.3-.1-.5-1.8-.5-1.6 0-2.2.2-1.2.5zM153.4 259.5c-.4.8-.4 2.2 0 3 .6 1.7-.9 2.1-1.9.5-.7-1.2-11.4-1.4-11.7-.3-.7 3.6-.3 6.2 1.3 7.1 1.3.9 1.8.8 2.3-.3.8-2.3-.5-4.7-2.2-4-1.2.4-1.3.3-.2-1 1.6-2 2.7-1.9 3.3.2.4 1.7.5 1.7.6 0 0-.9.9-1.7 1.9-1.7 1.4 0 1.5.2.2 1-1 .7.7 1 5.8 1 3.9 0 7.2-.4 7.2-.8 0-1.4-2.4-3.2-4.3-3.2-1 0-1.6-.4-1.3-.9.3-.5 1.5-.7 2.5-.4 1 .3 2.2 0 2.5-.6.5-.7-.4-1.1-2.4-1.1-1.8 0-3.3.6-3.6 1.5zm5.1 3.5c.3.5.1 1-.4 1-.6 0-1.1-.5-1.1-1 0-.6.2-1 .4-1 .3 0 .8.4 1.1 1zM89.7 265.7c-.4 3.8-.9 8-1.2 9.5-.3 1.5-.1 2.9.4 3.2.5.3.8 1.4.6 2.4-.1.9 0 1.2.2.5.2-.6 1-1.3 1.6-1.6 2-.7 7.7.5 7.8 1.7.1.6.4 0 .8-1.3.7-2.5.7-2.4 2.4 1 1.2 2.4 1.7 2.8 1.7 1.4 0-1.1-.3-3.1-.7-4.3-.6-2.5-.8-2.5-11-.8-3.5.6-3.9.1-2.3-2.4.9-1.3 1.2-1.2 2.5.4 1.3 1.7 1.5 1.7 1.5.3 0-.9-.8-2.1-1.7-2.7-1.4-.9-1.4-1-.2-.7.9.3 2.2.1 3-.4 1.1-.7 1.1-.9-.3-.9-1 0-1.8-.5-1.8-1.1 0-.6-.7-.9-1.5-.6-1.2.5-1.2.2-.2-2 .9-2.1 1.3-2.3 1.5-1 .2.9 1.1 1.7 2 1.6 1.1 0 1.2-.2.5-.6-.8-.2-1.3-2.2-1.3-4.4 0-3.1-.4-3.9-1.9-3.9s-1.9 1.1-2.4 6.7zM99 278c0 .5-.4 1-1 1-.5 0-1-.5-1-1 0-.6.5-1 1-1 .6 0 1 .4 1 1z"/><path d="M106.4 260.1c-.3.6-1.5.9-2.5.6-1.1-.3-1.9-.1-1.9.4s2 .8 4.4.7c3.1-.2 4.2-.6 3.9-1.5-.6-1.6-2.9-1.7-3.9-.2zM95.2 263c0 1.9.2 2.7.5 1.7.2-.9.2-2.5 0-3.5-.3-.9-.5-.1-.5 1.8zM231 262c0 1.1.2 2 .4 2s.6-.9.9-2c.3-1.1.1-2-.4-2s-.9.9-.9 2zM235 262.1c0 1.1-.4 1.7-1 1.4-.5-.3-1 0-1 .9 0 .8.6 1.7 1.3 2 .6.3.3.4-.8.1-1.9-.5-2.1-.1-1.6 3.2.4 2.7.6 3.1.9 1.5.5-3.3 2.2-2.7 2.2.9 0 1.7-.4 2.8-1 2.4-.5-.3-1-.1-1 .4 0 .6.7 1.1 1.6 1.1.9 0 1.8.9 2.1 2 .3 1.1.9 2 1.4 2 .4 0 .7-.9.6-2-.1-1.1-.4-2-.8-2-1.2 0-2.2-6.1-2-11.3.1-2.6 0-4.7-.4-4.7-.3 0-.5.9-.5 2.1zM133.5 265.2c.1 2.3.6 4.3 1.1 4.5.6.2 1-.7.8-1.9-.1-1.3-.3-3.3-.3-4.6-.1-1.2-.5-2.2-.9-2.2s-.8 1.9-.7 4.2zM225.5 266c.3.5.8 1 1.1 1 .2 0 .4-.5.4-1 0-.6-.5-1-1.1-1-.5 0-.7.4-.4 1zM244.5 266c-.3.5-.1 1 .4 1 .6 0 1.1-.5 1.1-1 0-.6-.2-1-.4-1-.3 0-.8.4-1.1 1zM84.5 267c-.3.5-.1 1 .4 1 .6 0 1.1-.5 1.1-1 0-.6-.2-1-.4-1-.3 0-.8.4-1.1 1zM225 269.2c0 .4.4.8.9.8.6 0 1.2 1.5 1.4 3.2.3 3 .4 2.9.5-.8.2-3-.2-4.1-1.3-4.1-.8 0-1.5.4-1.5.9zM251.1 269.4c-1 1.2-.8 1.3.8.9 1.2-.3 1.8-.9 1.5-1.4-.7-1.2-1-1.1-2.3.5zM96.2 270.3c1.8 1.9 3.8 2.2 3.8.7 0-.6-.4-1-.9-1s-1.8-.3-2.8-.7c-1.7-.6-1.7-.6-.1 1zM144.5 270c.4.6 1 .8 1.4.6.4-.3 1.7.2 2.9 1 1.6 1.1 2.2 2.6 2.2 5 0 3 .4 3.7 3 4.5 1.7.6 3 1.5 3 2.1 0 .5-.4.6-1 .3-.5-.3-1 0-1 .7 0 1.1-.2 1-.9 0-.7-1.1-.9-1.1-1.3 0-.8 2 .5 4.8 1.8 4 .6-.4 1.4-1.4 1.7-2.2.6-1.7 1.1 3.9.8 8.4-.2 1.8.1 2.6.8 2.1 1.4-.8.4-18.4-1.1-20.3-.8-.9-.7-1.1.7-.6 1.3.5 1.6.4 1-.5-.6-1-.3-1.1 1.5-.1 1.2.6 2.4.9 2.7.7.9-.9 4.1 3 5.4 6.7.8 2.1 1.6 3.1 2 2.4.8-1.3-1-6-2.8-7.1-.7-.4-1.3-1.3-1.3-1.9 0-.7.4-.7 1.3.1 1.7 1.4 2.7.4 2.7-2.6 0-1.9-.5-2.3-3.4-2.3-1.8 0-4.7.5-6.5 1.1-2.9 1-9 .5-7.8-.7.2-.3 4.2-.7 8.7-.9 4.6-.3 8.5-.7 8.7-.9.3-.2-5.5-.4-12.7-.5-8.6-.1-12.9.3-12.5.9zm10.2 5.8c.1 1.2-.2 2.2-.8 2.2-.6 0-.9-.9-.6-2 .3-1 .1-2.1-.4-2.4-.5-.2-.4-.3.2-.2.7.1 1.4 1.2 1.6 2.4zm2.3 3.2c0 .5-.5 1-1.1 1-.5 0-.7-.5-.4-1 .3-.6.8-1 1.1-1 .2 0 .4.4.4 1zM127.2 273.3c-1 2.5-1.4 2.9-2.2 1.7-1.1-1.8-2.3-.8-1.5 1.2.4.9 1.7 1.5 3.1 1.4 2.1-.1 2.4-.5 1.9-2.6-.6-2.3-.5-2.3.7-.7 1.3 1.7 1.4 1.7 1.5-.2.1-1.1-.4-2.4-1.1-3-.9-.7-1.5-.2-2.4 2.2zM205 270.9c0 .6.8 1.1 1.7 1.1 2.3 0 1.2.9-1.8 1.4-3.6.7-3.6.7-.9 1.5 1.7.5 2.5 1.4 2.4 2.9 0 1.2.5 2.2 1.2 2.2 1.6 0 .9-4-.8-5.2-.9-.5-.8-.8.5-.8 1.2 0 1.7-.6 1.5-1.7-.4-1.9-3.8-3.1-3.8-1.4zM254 272.3c0 1.6-2 2.7-5 2.7-1.7 0-4 2.6-4 4.4 0 1.5 1.8.4 2.8-1.7.6-1.2 1.1-1.6 1.1-1 .1.7.8 1.3 1.7 1.3.8 0 1.2-.5.9-1-.3-.6-.2-1 .4-1 .5 0 1.8-.3 2.8-.6 1.7-.5 1.7-.5 0 .9-1.6 1.4-1.6 1.5.6 1.9 2.1.4 2.4.1 2.5-3 .1-1.9-.1-3.2-.5-2.9-.3.4-1.2.2-2-.4-1-.9-1.3-.8-1.3.4z"/><path d="M143.4 273.2c-.3.4-1.5.8-2.7.9-2.1 0-2.1.1-.2.9 1.8.8 1.7.9-.7.9-1.6.1-2.8-.3-2.8-.8 0-1.7-4.6-.9-4.7.8-.1 1.4.8 1.6 5.2 1.4 3-.1 5.7.2 6 .7.3.6.7 3.4.7 6.2 0 2.9.4 6 .9 6.9.4.9.5 2.5.2 3.7-.7 2.7-4.3 3-4.3.4 0-1-.6-1.9-1.2-1.9-.7 0-2-.3-2.8-.7-1.2-.5-1.5.1-1.4 2.6.1 3.3 2.3 4.6 3.2 1.9.3-.8 0-1.1-.7-.7-.7.5-.9.1-.4-1 .5-1.4.8-1.4 2.3.6 1.2 1.6 2.4 2.1 3.9 1.7 1.1-.3 2.1-.1 2.1.4 0 1.4 2.7 1.1 4.4-.6.8-.8 1.9-1.5 2.5-1.5.6 0 1.1-1.3 1.1-2.9 0-2.7-.2-2.9-3.5-2.5-1.9.1-3.5-.1-3.5-.7 0-.5.5-.9 1-.9.6 0 1-.5 1-1.1 0-.5-.5-.7-1.2-.3-.8.5-.9.2-.5-1 1.1-2.8-.4-10.6-2-10.6-.8 0-1.1-.5-.8-1 .4-.6 1.1-.8 1.6-.5.5.4.9 0 .9-.8 0-1.5-2.8-1.9-3.6-.5zm2.3 16c-.3.7-.5.2-.5-1.2s.2-1.9.5-1.3c.2.7.2 1.9 0 2.5zM242 277c0 .5.4 1 .9 1 .6 0 1.3-.5 1.6-1 .3-.6-.1-1-.9-1-.9 0-1.6.4-1.6 1z"/><path d="M121.3 278.7c-.4 1.1.3 2.5 2.3 4.1l2.9 2.5-3.2-.6c-1.8-.3-3.5-.2-3.8.3-.4.6 3.4 1 9.9 1 9.9 0 10.6-.1 10.6-2 0-1.3-.6-2-1.7-1.9-1.1 0-1.3.3-.5.6 1.8.7.4 2.3-2.1 2.3-1.7 0-1.9-.3-.8-.9 1.6-1.1-.4-1.8-5.9-2-5.5-.2-7.2-1.1-6.7-3.2.6-2.3-.1-2.5-1-.2zm10.5 6c-1 .2-2.6.2-3.5 0-1-.3-.2-.5 1.7-.5s2.7.2 1.8.5zM162 278.1c0 .5.5.7 1 .4.6-.3 1-.8 1-1.1 0-.2-.4-.4-1-.4-.5 0-1 .5-1 1.1zM233.6 277.7c-1.2 1.2-.6 3.3.9 3.3.8 0 1.5-.6 1.5-1.4 0-1.7-1.4-2.8-2.4-1.9zM223.2 280c0 1.4.2 1.9.5 1.2.2-.6.2-1.8 0-2.5-.3-.6-.5-.1-.5 1.3zM228 280.1c0 1.3.5 3.1 1 3.9.7 1.1.8.5.4-2-.8-4.3-1.4-5.1-1.4-1.9zM108.1 280.6c0 1.1.3 1.4.6.6.3-.7.2-1.6-.1-1.9-.3-.4-.6.2-.5 1.3zM113.1 285c0 4.8.2 6 1 4.8.6-1.1.6-3.4 0-6.5l-.9-4.8-.1 6.5zM213 282.5c0 1.6.4 4.5.9 6.3.6 2 .6 3 0 2.7-.5-.4-.9.1-.9.9 0 .9.5 1.6 1 1.6.6 0 1 1.7 1.1 3.7.1 3.2.2 3.4.8 1.4.4-1.4 1.3-2.7 2.1-2.9 1.2-.4 1.3-.2.3.9-.7.7-1.3 2.3-1.3 3.6 0 1.3-.5 2.3-1 2.3-.7 0-.7.6 0 2 .6 1.1 1.5 2 2.1 2 .6 0 .7-.5.4-1-.3-.6-.2-1 .4-1 2.3 0 2 2-.5 2.6-1.9.5-2.2.9-1.2 1.5.9.6.5.9-1.4.9-2.8 0-3.1-.5-4.3-7.3-.5-3.4-1.2-4.1-3.2-3.5-.4.2-.9 1.9-1 3.8-.2 1.9-.4 4.6-.6 6-.2 2.4 0 2.5 5.3 2.2 3-.2 5.9-.7 6.4-1.2 1-1 4.6 1.9 4.6 3.8 0 .9.5 1 1.9.2 2.6-1.4 3.1-1.3 2.5.5-.4 1-1.6 1.3-3.9 1-2.3-.3-3.5.1-3.9 1.1-.4 1 .3 1.4 2.9 1.4 3.4 0 3.5.2 3.6 3.7.2 5.2.3 5.8 1.2 6 2 .7 2.6 0 2.5-3.8 0-2.3-.4-3.6-.8-2.9-.5.9-.9.8-1.3-.3-.3-.8-.1-1.9.5-2.5.5-.5.8-2.2.6-3.8-.2-2.1-.8-2.9-2.3-2.9-2.9 0-4.5-1.3-4.5-3.6 0-1.1-.9-3-2-4.2-1.2-1.2-1.6-2.3-1-2.5 1.3-.5 1.3-6.9 0-7.7-.5-.3-1-.1-1 .4 0 .6-.4 1.1-.9 1.1s-.9-1.5-.9-3.3c.1-1.7.3-2.6.5-2 .9 2.6 2.8 1.2 3.1-2.3.1-2.1-.2-3.3-.8-2.9-.5.3-1.1 0-1.1-.7-.1-.7-.5 0-.9 1.7l-.8 3-.1-2.8c0-1.5-.5-2.7-1.1-2.7-.5 0-1-.4-1-.9 0-.4 1.1-.7 2.5-.6 1.6.2 2.5-.2 2.5-1.1 0-1-1-1.4-3-1.2-2.6.2-3 .6-3 3.3zm-2.8 24.3c-1.8.6-1.4 2.2.6 2.3 1.4 0 1.4.2-.3.8-2.6 1.1-2.9.7-2.1-2.4.4-1.6 1.1-2.3 1.8-1.9.9.6.9.9 0 1.2zM262.2 281c0 1.4.2 1.9.5 1.2.2-.6.2-1.8 0-2.5-.3-.6-.5-.1-.5 1.3zM162.3 281.2c.3 1 .9 6.1 1.3 11.5.3 5.4.9 10 1.1 10.3.3.3.3-4.4-.1-10.5-.4-6-1.2-11.4-1.8-12-.8-.7-.9-.5-.5.7z"/><path d="M207.5 286.6c.6 5.4.6 5.7-1.4 5.1-1.1-.2-2.2 0-2.5.7-.3.6-.3-.1 0-1.7.4-1.5.2-2.7-.4-2.7-.5 0-1.1 3-1.2 6.7-.2 9.4-.3 10.3-1.2 10.3-.5 0-1.1-1.4-1.5-3-.3-1.7-1-3.3-1.5-3.6-.5-.3-.6.6-.1 2.3.4 1.5.7 4.6.6 6.8 0 2.2.2 3.1.4 2 .7-2.7 2.3-4.3 2.4-2.5.1 3.4 1.8-2.8 1.8-7 .1-2.5.6-5.2 1.1-6 .7-1.2 1.3-1.1 3.4.9 1.4 1.4 2.9 2.1 3.3 1.7.4-.4.1-1.1-.6-1.6-1.1-.6-1.4-2.7-1.2-7.4.2-4.6-.1-6.6-.9-6.6-.9 0-1 1.6-.5 5.6zM236.6 281.8c-.4.6-1.4.8-2.4.5-1.4-.6-1.5-.4-.4.9 2.2 2.7-.9 7.8-3.5 5.6-.9-.7-1.3-.7-1.3 0 0 .5.7 1.2 1.5 1.6.8.3 1.5 1.1 1.5 1.8 0 .9-.3.8-1-.2-.8-1.2-1-1.1-1 .7 0 1.9.6 2.3 3 2.3 2.5 0 3-.4 3-2.5 0-1.4.4-2.5.9-2.5s.8 1.2.5 2.6c-.4 2.1-.1 2.5 1 2.1 1.7-.7 2.8.6 3 3.4.1 1.1.4 1.9.9 1.9h2.2c.8 0 1.5-.5 1.5-1 0-1.3-2.7-1.3-3.3 0-.3.6-.4.5-.3-.2.1-.7 1.3-1.5 2.7-1.8 2.4-.6 2.4-.6.2-1.2-1.6-.4-2-1.1-1.6-2.7.3-1.3.1-2.1-.6-2.1s-1 .4-.6.9c.3.5.1 1.2-.5 1.6-.5.3-1 .1-1-.4 0-.6-.3-1-.7-1-2 .3-2.6-.2-1.3-1.1 1-.6 1.1-1 .3-1-.7 0-1.3-.7-1.3-1.6 0-.8-.4-1.2-1-.9-.6.4-1-.5-1-1.9s.4-2.6 1-2.6c.5 0 .7.7.4 1.5-.4.8-.1 1.5.5 1.5 1.3 0 1.4-2 .2-3.9-.6-.9-1.1-1-1.5-.3zm-1.6 10.3c0 .5-.4.9-1 .9-.5 0-1-.7-1-1.6 0-.8.5-1.2 1-.9.6.3 1 1 1 1.6zM244.7 281.7c1.5.5 2.5 3.3 1.3 3.3-.6 0-1-.5-1-1 0-1.6-1.7-1.2-2.4.6-.5 1.3.2 1.5 4.2 1.3 2.6-.1 5.3.1 6 .5.8.5 1.2-.1 1.2-1.8 0-2.1-.5-2.6-2.4-2.6-1.3 0-3.6-.2-5.2-.4s-2.4-.1-1.7.1zM86.7 282.7c-1.4 1.3-.6 3.9 1.1 3.9 1 0 1.9-.6 1.9-1.3 0-.7-.7-1.3-1.4-1.3-.8 0-1.1-.5-.8-1 .7-1.1.2-1.3-.8-.3zM100.1 283.3c-.7 1-2 1.7-2.7 1.7-.8 0-1.4.8-1.5 1.7 0 1.5-.2 1.5-.9-.2-.6-1.3-.9-1.5-.9-.5-.1 2.7 1.1 6 2 5.4 1.6-1 .9 1.3-1.1 3.7-1.9 2.3-2.1 2.3-3.4.6-1.3-1.6-1.4-1.4-1.3 2l.1 3.9 3.2-1c2.5-.8 3-1.3 2.2-2.3-1.5-1.8-.2-2.9 1.6-1.4 1.2 1 1.4.6 1-3.1-.3-2.4-.7-5.1-.8-6-.4-2 2.3-3.3 3.8-1.8.5.5 1 2.9 1.1 5.2.1 3.4-.4 4.8-2.3 6.5-1.4 1.3-2 2.3-1.4 2.3.6 0 1.4-.5 1.7-1.1.4-.6 1.3-.8 2.1-.5.8.3 1.4-.1 1.4-.8 0-.8 1.1-1.4 2.5-1.4 1.6 0 2.5.6 2.5 1.7 0 1.4.2 1.4 1 .1.9-1.3 1-1.3 1 0 0 .8.9.1 2-1.7l1.9-3.2 9.8-.3c8.2-.3 9.4-.5 7.3-1.4-1.4-.7-2.7-.8-3.1-.3-.8 1.4-10.2.6-11.8-1-1.3-1.1-1.6-1-2.3.9-1.3 3.4-3.7 4.8-7.2 4.1-2.9-.6-3.1-1-3.4-5.4-.2-2.6-.7-4.7-1.2-4.7s-1-.7-1.2-1.7c-.3-1.5-.4-1.5-1.7 0zm-5.4 15.3c-.3.3-1.2.4-1.9.1-.8-.3-.5-.6.6-.6 1.1-.1 1.7.2 1.3.5zM258.7 284.7c-1.1 1.1-.8 4.8.6 6.2 1 1.1 1 1.3 0 .7-1-.5-1.3.6-1.3 4.2 0 5-2.2 8.8-3.3 6-.3-.7-.5.7-.4 3.2.2 4.2 0 4.5-2.5 4.8-2 .2-2.8.9-2.8 2.3 0 1 .5 1.9 1.1 1.9.5 0 .8-.4.5-.9-.4-.5.7-1.2 2.3-1.6 2.2-.5 3-1.3 3.5-3.6.3-1.7 1-2.8 1.6-2.4 1 .6 1.5-3.5 1-8-.1-1.1.1-1.7.5-1.3.4.3.8 4.1.9 8.2.5 13.1 1.4 9.4 1.5-5.8.1-11.7-.1-14.6-1.2-14.6-.8 0-1.7.3-2 .7zm2.3 1.7c0 .3-.4.8-1 1.1-.5.3-1 .1-1-.4 0-.6.5-1.1 1-1.1.6 0 1 .2 1 .4zm0 7.6c0 .5-.4 1-1 1-.5 0-1-.5-1-1 0-.6.5-1 1-1 .6 0 1 .4 1 1z"/><path d="M108.3 288.5c0 2.2.2 3 .4 1.7.2-1.2.2-3 0-4-.3-.9-.5.1-.4 2.3zM224.2 294.7c0 9.7.1 10.2 1.8 9.3 2.2-1.2 9-1.3 10.6-.2 1.7 1.1 2.2 3.7 3 14.2.9 12.4.9 13.1-.1 15.5-.7 1.6-.6 1.8.6.7.7-.6 2.6-1.2 4.1-1.2 1.5 0 2.8-.4 2.8-.9s.3-1.6.6-2.5c.3-.9.1-1.6-.5-1.6s-1.1.7-1.1 1.6c0 1.1-.5 1.4-1.6 1-.9-.3-1.8-.6-2-.6-.2 0-.4-.5-.4-1.1 0-.5.4-.8.9-.5.5.3 1.5-.1 2.2-1 1.5-1.9 2.2-7.4.9-7.4-.6 0-.9.3-.9.7.5 3.3-.3 6.1-2 6.6-1.7.4-1.9-.3-2-7.6-.1-4.5-.4-10.1-.6-12.6-.2-2.5-.1-3.8.2-2.8.4 1.5 1.3 1.7 5.1 1.5 2.9-.2 4.7-.8 5-1.8.4-1.2.2-1.3-.9-.4-2.9 2.1-6.5 1.5-8.8-1.6-1.2-1.7-2.8-3-3.6-3-1.8 0-2 1.6-.2 2.3.9.4.8.6-.2.6-.8.1-1.9-.6-2.6-1.5-.6-.9-2-1.4-3.1-1.2-1.7.4-1.6.6.6 1.6l2.5 1.1h-2.7c-1.9.1-2.8-.4-2.8-1.5 0-1-.6-1.4-1.5-1.1-.8.4-1.7.1-2.1-.5-.4-.7-.3-.8.4-.4.9.5.9 0 .2-2-.6-1.5-.8-3.4-.5-4.3.2-.9.1-3-.4-4.6-.7-2.2-.9-.4-.9 7.2zM82.1 290.3c-.1 1.6.3 2.6.9 2.2.6-.4 1 .7 1 2.7 0 1.8.4 3.8.8 4.5.4.6.7-1.3.7-4.3 0-3.4-.4-5.4-1.2-5.4-.6 0-1.4-.6-1.6-1.3-.3-.6-.6.1-.6 1.6zM90.2 290.5c0 1.6.2 2.2.5 1.2.2-.9.2-2.3 0-3-.3-.6-.5.1-.5 1.8zM138 291c0 .6.7 1 1.5 1s1.5-.2 1.5-.4-.7-.6-1.5-1c-.8-.3-1.5-.1-1.5.4zM250.5 291.1c-1.9.9-1.9.9.2.5 1.2-.2 2.4.1 2.7.8.2.6.5.3.5-.7.1-1.9-.5-2-3.4-.6zM154.7 294.7c-.4 2.1-.3 4.1.1 4.5.5.5.9-1.2 1.1-3.7.2-5.5-.4-5.9-1.2-.8z"/><path d="M82.3 298c.2 1.4.6 3 1 3.7.4.6.3 1.4-.3 1.8-.5.3-1 0-1-.7 0-2.1-2 1.4-2 3.6 0 1.5.5 1.7 2.8 1.1 1.5-.4 7-.7 12.1-.6 7.9.1 9.8.5 11.3 2 .9 1.1 1.3 2.1.7 2.3-.6.2-1.3 8.2-1.8 19.3-.6 15.8-.5 19.3.7 20.7 1.1 1.3 1.1 2.1.2 3.5-1 1.5-1.1 1.6-.6.1.3-1 .1-2-.4-2.3-.6-.4-1-.1-1 .4 0 2-2.7 1.1-3.8-1.3-.7-1.6-.7-2.7 0-3.4.7-.7.6-1.7-.2-3.2-.8-1.5-.9-2.5-.2-2.9 1.2-.7 2-29.6.9-30.7-.4-.4-.7.1-.7 1 0 1-.6 1.6-1.2 1.3-.7-.2-1.2-1-1-1.7.2-1-1.4-1.1-7-.6-4 .4-7.7 1.2-8.3 1.7-.7.7-.1.8 1.7.4 2.3-.6 3-.2 4.7 2.6 1.1 1.8 1.7 3.7 1.4 4.3-.4.5-1 .1-1.5-1-.6-1.3-.7-.8-.3 1.6.8 5.6.9 19.6.1 20.9-.4.6-1.4 1.1-2.2 1.1-1.1 0-1.4-1.8-1.5-8.3-.1-6.7-.2-7.6-1-5.2-1.2 3.8-.1 15.5 1.4 15.5.8 0 .8.3 0 1.1-1.2 1.2-.6 4.9.8 4.9.5 0 .9-.7.9-1.5s.7-1.5 1.6-1.5c1 0 1.4.6 1.1 1.4-.4 1-.1 1.3.9.9s1.3-1.4.9-3.7c-.9-4.6-1.1-15.6-.4-15.8 1.3-.5 1.4-7.3.1-7.1-1.4.3-1.6-.9-.3-2.2.5-.6 1.2-2.7 1.5-4.8.6-3.1.4-3.7-1-3.7s-1.5.2-.3 1.7c1.3 1.6 1.2 1.7-.4.4-2.5-1.9-.7-3.5 3.1-2.6 3.1.6 4 2.3 4.3 8 .2 2.3.4 2 .9-1.5l.7-4.5.1 4.2c.1 2.3-.3 4.5-.9 4.8-1.6 1.1-.9 31.4.8 30.8.7-.3 1.3 0 1.3.5 0 .6-.8 1.3-1.7 1.5-1 .3 2 .5 6.7.6 12.9 0 13 0 13 1.6 0 .8.5 1.5 1 1.5.6 0 1 .7 1 1.5 0 1.6 2.9 2.1 3.1.5.1-.6.2-1.6.3-2.3.1-.6-.3-1.5-.9-1.9-.5-.4-1.1-1.2-1.1-1.8-.1-.5-.2-1.5-.3-2.1 0-.6-1.7-.9-3.8-.8-2.1.1-4.9-.1-6.1-.5-1.9-.6-2.3-1.3-1.8-3.4.6-2.5.5-2.6-.8-.9-1.1 1.4-1.9 1.6-3.2.9-1.1-.6-1.3-1.1-.5-1.6.6-.4 1.1-.1 1.1.6 0 .9.3.9 1-.2 1.3-2 1.3-17 0-17-.5 0-1-.5-1-1.1 0-.5.5-.7 1.1-.3 1.6.9 2.9-1.5 2.8-5.1-.1-2-.3-2.4-.6-1.1-.5 1.9-2.6 4.6-3.6 4.6-.3 0-.3-.9 0-2s.9-2 1.4-2c.5 0 .9-.7.9-1.5s-.4-1.5-.9-1.5-.9-2.1-.8-4.8c0-2.6.3-3.9.5-3 .6 2.8 1.8 2.1 1.9-1 .1-4.9.3-5.2 2.7-5.2 1.3 0 2.6-.5 2.8-1.1.2-.7 1.4-.8 3.3-.3l3 .8-2.5.7c-2.3.6-2.3.7-.3.8 1.2.1 2.6-.6 3.1-1.5.8-1.4 1.1-1.1 2.1 1.6.6 1.8 1.1 4.2 1 5.4 0 2.1-.1 2.1-.9.1-.8-1.8-.9-1.7-.9.8-.1 1.6-.5 2.6-.9 2.3-1-.6-.9-4.2.1-5.2 1.1-1.1.8-3.6-.3-2.9-.6.4-.8 1.1-.5 1.6.4.5 0 .9-.8.9-1.8 0-1.6 4.2.3 6.4 1 1.3 1.3 4.5 1.1 12.7-.1 6 0 10.9.4 10.9.3 0 1.3-1.6 2.1-3.5 1.3-3.2 1.3-7-.2-14.2-.3-1.5 0-2.1.9-1.8.8.4 1.2 2.1 1 4.8l-.2 4.2.9-4.5c.5-2.5.8-5.9.8-7.5-.1-2.3-.2-2.5-.5-.8-.5 2.9-3.3 3-3.3.2 0-1.1.4-1.8.9-1.5 1 .7 2.4-12.6 1.3-13.5-.4-.4-2.7-.4-5.2.1s-8.8.9-14 .9c-5.2 0-12.1.3-15.2.6-4.7.4-5.8.2-5.8-1 0-.8-.4-1.5-.9-1.5-.4 0-1.3-1.5-1.9-3.3-.8-2.5-1-2.7-.9-.7zm1.3 6.9c.8-.7 1.4-.7 1.4-.1 0 1.2-2.6 2.3-3.4 1.5-.3-.4-.6-1.1-.5-1.7 0-.6.3-.5.6.2.4 1 .8 1 1.9.1zm26.2.8c-1 .2-1.5 1-1.1 1.9.7 1.8-1.1 1.8-2.7-.1-.6-.8-3.4-1.6-6.3-1.8-3.2-.2-1.9-.4 3.3-.4 4.7 0 7.7.1 6.8.4zm14.1 27.7c-.5.6-.8-1.5-.8-5l.2-5.9.7 5c.4 2.7.3 5.4-.1 5.9zm-24.2-5.2c-.3.7-.5.2-.5-1.2s.2-1.9.5-1.3c.2.7.2 1.9 0 2.5zm0 9c-.2 1.3-.4.3-.4-2.2s.2-3.5.4-2.3c.2 1.3.2 3.3 0 4.5zm8.3-1.1c0 .5-.4.9-.8.9-.5 0-.9-.7-.9-1.5s.4-1.2.9-.9c.4.3.8.9.8 1.5zm-18 8.4c0 1.4-.4 2.5-.9 2.5-.4 0-.6-1.1-.3-2.5.2-1.4.6-2.5.8-2.5.2 0 .4 1.1.4 2.5zm20 9c0 .8-.4 1.5-1 1.5-.5 0-1-.7-1-1.5s.5-1.5 1-1.5c.6 0 1 .7 1 1.5zm3.4 1.3c.3.5-.1.9-.9.9s-1.5-.4-1.5-.9c0-.4.4-.8.9-.8.6 0 1.2.4 1.5.8zm4.1 1c-.3.3-1.1 0-1.8-.7-.9-1-.8-1.1.6-.5 1 .3 1.5.9 1.2 1.2zm5.5 5.6c0 .6-.8-.3-1.9-1.9-1-1.7-1.6-3.4-1.4-3.8.6-.9 3.3 3.9 3.3 5.7zM169 297.1c0 .5.5.7 1 .4.6-.3 1-.8 1-1.1 0-.2-.4-.4-1-.4-.5 0-1 .5-1 1.1zM105 298c0 .6.7 1 1.5 1s1.5-.2 1.5-.4-.7-.6-1.5-1c-.8-.3-1.5-.1-1.5.4zM113.6 297.8c-.6 1.1 7.5 1.4 9.1.4.7-.4-.9-.9-3.7-1-2.7-.1-5.1.2-5.4.6z"/><path d="M130.6 301.7c.8 2.6 1.5 7.1 1.7 9.9.1 4.1.5 5 1.5 4.2.6-.6 1.2-2.1 1.2-3.5s.4-2.1 1-1.8c.6.4 1-.9 1-3.2 0-2.7.3-3.4.9-2.3.6.8.8 1.7.5 2.1-.2.4.5.9 1.6 1.2 2 .5 2.5 2.7 2 8.4-.1 1.3.2 2.3.7 2.3.5 0 .8 4.4.7 9.7-.2 9.3-.3 9.8-2.6 10.4l-2.3.6-.2-11.1c-.2-14.9-.3-16.6-1.3-16.6-.4 0-.8 1.7-.8 3.7 0 11.2-.3 17.6-.9 17-.3-.4-.6-4.2-.5-8.4 0-5.3-.2-6.7-.7-4.3-.3 1.9-.6 7-.5 11.2.1 6.7-.1 7.5-1.3 6.2-.8-.8-1.9-1.4-2.4-1.4s-.9-1.1-.9-2.5-.5-2.5-1.1-2.5c-1.1 0-.9 1.9.7 6.7.5 1.5.4 1.6-.5.3-1-1.3-1.2-1.3-2.1 0-.8 1.3.3 1.6 7.2 2.2 5.2.4 8.7.3 9.5-.3.7-.6 1.6-.9 2-.6.4.3.8-.6.8-1.9 0-1.3-.3-2.4-.7-2.4-.5 0-.8-2-.8-4.4 0-4.6 1.8-7.6 4.6-7.6 1.7 0 3.4 3.8 2.6 5.9-.4 1.2 1.2 1.3 10.5.7 9.3-.6 11.3-.4 12.6.9 2 1.9 2.7 1.9 2.7 0 0-.8-.7-1.5-1.5-1.5s-1.5-.5-1.5-1c0-1.3.6-1.3 3.1 0 1.7 1 1.9.7 1.9-3v-4.1l-9 .3c-5 .2-9 0-9-.5 0-.4-.4-.7-.8-.7s-.8 1.6-.8 3.5c0 3.3.2 3.5 3.5 3.5 5.7 0 2.9 1-3.7 1.3-3.4.2-6.3.3-6.3.3-.1-.1-.5-5.7-.8-12.6l-.6-12.5h-8c-5.9 0-8.3-.4-9.3-1.5-1.1-1.3-1.2-1.2-.7.7.4 1.4.2 2.3-.4 2.3-.6 0-1.1-1.3-1.1-3 0-2.3.3-2.8 1.6-2.3 1.2.4 1.5.2 1.2-.8-.2-.8-1.6-1.5-3-1.7l-2.6-.3 1.4 4.8zm15.9 4.4c.4 1.3.2 2.5-.5 2.9-1.7 1-.5 4 1.5 4 1.3 0 1.6-.9 1.4-3.8-.2-2 .1-3.8.5-4 .5-.1.8 2.3.8 5.3-.1 7.3-.1 7.2-1.2 5.5-.8-1.3-1-1.3-1 .2 0 .9-.6 1.9-1.2 2.1-1 .4-.9.8.2 1.6 1.7 1.1.7 2.7-1 1.6-.6-.4-.9-1.7-.6-2.9.7-2.7-.3-6.8-1.5-6-.5.3-.9-.6-.9-2.1 0-1.4-.7-2.8-1.6-3.2-1.4-.5-1.2-.8.7-1.9 3.2-1.8 3.7-1.7 4.4.7zm-10.5 1c0 .5-.4.8-.9.5-.5-.4-1.2 0-1.4.6-.3.8-.6.6-.6-.5-.1-.9.6-1.7 1.4-1.7.8 0 1.5.5 1.5 1.1zm9 8.9c0 .5-.4 1-1 1-.5 0-1-.5-1-1 0-.6.5-1 1-1 .6 0 1 .4 1 1zm25.1 7.7c-1.1.5-1.1.7 0 1.4.9.6.2.9-2.3.9-2.9 0-3.6-.3-3.2-1.5.4-.9 1.8-1.5 3.8-1.4 1.7 0 2.5.3 1.7.6zm4.6.8c0 .8-.6 1.5-1.3 1.5-.8 0-1.1-.6-.8-1.5.4-.8.9-1.5 1.3-1.5s.8.7.8 1.5zm-37.6 11.8c-.6.6-1.4.7-1.8.2-.5-.4-.2-1 .5-1.2.6-.3 1.3-2.3 1.4-4.6l.1-4.2.4 4.4c.3 2.4 0 4.8-.6 5.4zM158 298c-1.2.8-1.2 1-.1 1 1.1 0 1 .5-.4 2-1 1.1-1.3 2-.7 2 .7 0 1.2-.5 1.2-1.1 0-.5.5-.7 1-.4.6.4 1-.5 1-1.9 0-2.9 0-2.9-2-1.6zM182.8 299.7c.7.3 1.6.2 1.9-.1.4-.3-.2-.6-1.3-.5-1.1 0-1.4.3-.6.6z"/><path d="M157.7 303.8c-1.5.3-1.7 1.6-1.6 10.7.1 5.6-.2 10.8-.5 11.4-.4.6 0 1.1 1 1.1 1.5 0 1.6-1 1.2-7.8-.2-4.2-.2-6.8 0-5.8.3 1.5.6 1.6 1.4.5.6-1 .7-.3.3 2.1-.5 3-.4 3.3.7 1.9.7-.9 2-1.5 2.9-1.4 1.2.2 1.5-.3 1.2-1.6-.3-1-1-1.9-1.5-1.9s-.6.5-.2 1.2c.4.7.3.8-.4.4s-1.2-2.3-1.2-4.2c0-1.9-.5-3.4-1.1-3.4-.6 0-.9.9-.6 2 .3 1.1.1 2-.4 2s-1-.5-1-1c-.1-.6-.2-1.6-.3-2.3-.1-.6.5-1.7 1.4-2.4 1.8-1.4 1.2-2.1-1.3-1.5zM165.6 310.3c.2 2.6.6 5.2.9 5.7.7 1.2 10.5 1.3 10.5.2 0-1.4-2.4-3.2-4.2-3.2-2.4 0-3.5-2.9-1.7-4.2 1.2-.8 1.2-.9 0-.6-.8.3-1.8 1.6-2.2 3-.6 2.1-.3 2.7 1.4 3.2 1.2.3 1.9.7 1.6 1-.3.3-1.4.3-2.6 0-1.8-.5-2-1.2-1.7-4.7.3-3.1.2-3.7-.5-2.2-.8 1.9-.9 1.9-1.3-.5-.3-1.4-.4-.3-.2 2.3zM224.8 306.7c.7.3 1.6.2 1.9-.1.4-.3-.2-.6-1.3-.5-1.1 0-1.4.3-.6.6zM230.8 307.7c1.6.3 2.2 1.1 2.2 3 0 3.2 1.3 2.2 1.4-1 .1-1.9-.4-2.3-2.9-2.4-2.1 0-2.3.1-.7.4zM257 309.3c0 1.3.5 2.8 1.2 3.5 1.9 1.9.2 2.5-2.5.7-1.7-1.1-2.7-1.3-3.2-.6-.3.7.3 1.1 1.4 1.1 1.2 0 2.1.4 2.1 1 0 .5.9 1 2 1 2.1 0 2.4-.9 1.4-5.9-.8-3.6-2.4-4.2-2.4-.8zM127.2 312.5c0 1.6.2 2.2.5 1.2.2-.9.2-2.3 0-3-.3-.6-.5.1-.5 1.8zM200 311.6c0 .8-.4 1.3-.9 1-.5-.3-.9 1-.9 2.9s.4 3.8.9 4.1c.5.3.9-.7.9-2.1 0-1.4.4-2.4.8-2.1.5.3.7 2 .5 3.8-.1 1.8 0 2.7.3 2 .9-1.9 3.4-1.4 3.4.8 0 1.1.5 2 1 2 .6 0 .8-1.1.4-2.5-.4-1.8-.1-2.7 1-3.1 2.2-.8 1-2.4-1.9-2.4-2.5 0-5.1-3.3-4-5 .3-.6.1-1-.4-1-.6 0-1.1.7-1.1 1.6zm6 6.4c0 .5-.9 1-2 1s-2-.5-2-1c0-.6.9-1 2-1s2 .4 2 1zM245 311.5c0 .8.7 1.5 1.5 1.5s1.5-.7 1.5-1.5-.7-1.5-1.5-1.5-1.5.7-1.5 1.5zM113.8 311.6c-.7.6 0 6.9.9 9.4.4.8.5 2 .4 2.7-.1.6.3 1.4.9 1.8.8.5.7 1.1-.1 2.1-1.2 1.4-.5 3.3.7 2.1 1.3-1.2 1.6-9.4.5-10.2-.9-.5-.9-1 0-2.1s.8-1.4-.5-1.4c-.9 0-1.6-.5-1.6-1 0-.6.7-1 1.5-1s1.5-.7 1.5-1.5-.4-1.5-1-1.5c-.5 0-1 .6-1 1.2 0 1-.2 1-.8 0-.5-.7-1.1-1-1.4-.6zM177 314c0 .5.7.7 1.5.4.8-.4 1.5-.8 1.5-1 0-.2-.7-.4-1.5-.4s-1.5.4-1.5 1zM184.8 313.7c-1 .3-1.8.9-1.8 1.4 0 1.3 1.4 1.1 2.8-.3 1.9-1.9 2.1-.6.7 3.6-.8 2.2-1.1 4.4-.7 5 .3.6.9 0 1.2-1.4 1.1-4.5 3.4-3 4 2.5.5 4.3.7 4.6 1.1 2l.6-3 .2 2.7c.1 2.6 3.1 4.2 3.1 1.7 0-.5.5-.7 1-.4.7.4.8 3.3.4 8.1-.6 7.1-.6 7.4 1.5 7.4 1.7 0 2.1-.6 2.1-3.6 0-2.1-.4-3.3-1-2.9-.6.3-.8 1.8-.5 3.3l.5 2.7-1.1-2.8c-.9-2.3-.8-3.2.3-4.3 1.1-1.1 1.3-2.8.8-6.7-.4-2.9-.5-5.8-.2-6.6.4-1.1.1-1.1-1.6-.2-3.5 1.9-5.9 1.4-6.4-1.4-.6-2.9.8-4.5 1.5-1.8.3 1 .5.2.6-1.7.1-3.4 0-3.5-3.7-3.6-2-.1-4.5.1-5.4.3zm5.2 3.3c0 .5-.4 1-1 1-.5 0-1-.5-1-1 0-.6.5-1 1-1 .6 0 1 .4 1 1z"/><path d="M179.6 315.6c-1.6 1.1-1.7 1.4-.4 1.4 2.9 0 3.7 2.6 3.9 13.2l.1 10.6 3 .4c2.2.4 2.8.1 2.3-.9-.3-.8-.5-1.9-.5-2.4 0-.6-.4-.8-.9-.5-.5.4-.7-.2-.4-1.2.2-1-.3-2.4-1.1-3.1-2.1-1.8-2-3.7.2-5 1.6-1 1.6-1.2 0-2.5-1.9-1.4-2.5-6.6-.8-6.6.6 0 1-.5 1-1 0-.6-.9-1-1.9-1-1.1 0-2.1-.6-2.3-1.4-.3-1.3-.6-1.3-2.2 0zM245 314.8c0 .5 2.4.9 5.2 1.1 2.9.1 5 0 4.8-.2-1-.9-10-1.6-10-.9zM210.7 316.4c-.3.8.1 1.7.9 2 2.3.9 3.4.7 3.4-.4 0-.6-.7-1-1.6-1-.8 0-1.2-.5-.9-1 .3-.6.2-1-.3-1-.6 0-1.2.6-1.5 1.4zM215 315.7c.8.3 1.8 1 2.1 1.5.3.5.9.3 1.2-.6.5-1.2 0-1.6-2.1-1.5-1.6 0-2.1.3-1.2.6zM233 317c0 1.9.3 2.1 1.2 1.2.9-.9.9-1.5 0-2.4-.9-.9-1.2-.7-1.2 1.2zM108.6 316.8c-.2.4-.1 1.4.5 2.2.7 1.2.9 1 .9-.8 0-2.3-.5-2.8-1.4-1.4zM92.8 320c-.7 2.4-.3 3.8.8 2.8.3-.4.4-1.7.2-3l-.3-2.3-.7 2.5zM234.2 324c0 2.5-.2 4.9-.3 5.5-.2.5.1 1.2.6 1.5 1.4.7 1.8-4.1.7-8.1l-1-3.4v4.5zM251 321.5c0 1.5 2.9 5.5 4 5.5.5 0 .5-2.4.1-6.3-.2-1.4-4.1-.7-4.1.8zM257 320.9c0 1 2.6.9 3.6-.2.4-.4-.2-.7-1.4-.7s-2.2.4-2.2.9zM208.5 323c-.3.5.1 1 1 1s1.3-.5 1-1c-.3-.6-.8-1-1-1-.2 0-.7.4-1 1zM217.2 323.2c.7 2 4.8 2.3 4.8.4 0-1.1-.9-1.6-2.6-1.6-1.6 0-2.4.5-2.2 1.2zM265.1 323.6c0 1.1.3 1.4.6.6.3-.7.2-1.6-.1-1.9-.3-.4-.6.2-.5 1.3zM211.4 324.9c-2.1 1.7-2.1 2-.8 7.1 1.8 6.9 1.9 15 .2 15.1-.7.1 1.4.7 4.7 1.4 3.3.6 6.9 1.5 8 2 1.5.5 1.6.4.6-.3-.8-.6-1.1-1.7-.8-2.6.5-1.1.1-1.6-1.4-1.6-1.3 0-1.8.4-1.3 1.2.6 1 .4 1-.8 0-1.3-1-1.7-1-2.1 0-.4 1.1-.6 1-.6 0-.1-.7-.5-1.1-1-.7-1.3.8-2.9-4.9-3.7-13.2-.6-6.2-.4-7.4 1-7.9.9-.3 1.6-1 1.6-1.5 0-1.4-1.3-1-3.6 1zM205.2 328.5c0 1.6.2 2.2.5 1.2.2-.9.2-2.3 0-3-.3-.6-.5.1-.5 1.8z"/><path d="M216.6 330.5c.3 2.7.5 6.3.5 7.8-.1 1.7.3 2.6.9 2.2.5-.3 1 .1 1 .9 0 .9.5 1.6 1 1.6.7 0 .7-.6 0-1.9-.5-1.1-1-3.6-1-5.6 0-2.2-.4-3.4-1-3-.5.3-1 .1-1-.4 0-.6.5-1.1 1-1.1.6 0 1-1 1-2.3 0-1.6-.3-1.9-.9-.8-.7 1.1-1 1-1.4-.5-.3-1-.3.3-.1 3.1zM92.6 330.1c-.8 4.4-.8 16.7.2 17.2.4.3.7-4.2.8-9.9 0-5.7 0-10.4-.1-10.4-.2 0-.5 1.4-.9 3.1zM258.8 331c.6 5.7 2.4 6.2 2.1.6-.2-2.5-.8-4.6-1.4-4.6-.6 0-.9 1.5-.7 4zM228.4 330.1c-1.1 1.8-1.4 12-.3 11.4.4-.3.6-1.2.2-2-.3-.8-.1-1.5.5-1.5.5 0 1.2.9 1.5 2.1.4 1.3 1 1.8 1.7 1.4.9-.6.9-.9.1-1.4-1.6-1-3.1-6.7-2-7.8.4-.4.4-1.4 0-2.2-.7-1.1-1-1.1-1.7 0zM191.1 333.3c0 1.8.3 2.5.6 1.7s1-2 1.5-2.6c.5-.8.3-1.4-.7-1.8-1.2-.4-1.5.2-1.4 2.7zM116.5 333.2c-.9 3.8-1.3 9.2-.8 10.5.3.7 2.1 1.3 4 1.3 2.3 0 3.3-.4 3-1.3-.2-.6-1-1.1-1.7-.9-2.7.6-3.9-1.9-3.3-6.9.6-5-.2-6.8-1.2-2.7zM145 332.4c0 1.8 1.9 3.1 2.8 2.1.4-.4.1-1-.6-1.2-.6-.3-1-.9-.6-1.4.3-.5 0-.9-.5-.9-.6 0-1.1.6-1.1 1.4z"/><path d="M231.1 332.9c-.9.6-.2.9 2.3.9 2.1 0 3.5-.3 3.1-.6-1-1-4-1.2-5.4-.3zM149 335.4c0 1-.6 1.3-1.6.9-1.4-.5-1.5-.3-.5 1.5.6 1.2 1.9 2.6 2.9 3.1 1.4.8 1.5 1.2.5 2.2-1.1 1.1-1.3 1-1.3-.4 0-1.3-.9-1.7-3.4-1.7-1.9 0-3.8.5-4.2 1.2-.5.8.2.9 2.3.5 3-.6 6.3 1.5 6.3 3.9 0 .5-.4.2-1-.6-.8-1.2-1-1.2-1.5.2-.4.9-1.2 1.5-2 1.2-.7-.3-2.8.2-4.6 1-2.9 1.4-3 1.5-.7 1.1 1.4-.3 3.3-.8 4.2-1.1.9-.3 1.6-.1 1.6.5s1.2 1.1 2.8 1.1c2.6 0 2.7-.1 2.8-6 0-3.3-.3-6-.7-6-.5 0-.6-.7-.3-1.5.7-1.8 5.4-2 5.4-.2 0 .7.9 1.3 2 1.4 1.1.1 2-.1 2-.5-.1-1.8-1.9-2.7-6.2-3-3.8-.3-4.8-.1-4.8 1.2zM240.1 337.6c0 1.1.3 1.4.6.6.3-.7.2-1.6-.1-1.9-.3-.4-.6.2-.5 1.3zM190.6 338.6c-1 2.6-.7 3.4 1.2 3.3 1.1 0 1.2-.2.4-.6-.9-.4-1-.8-.2-1.8.7-.8.7-1.6.2-1.9-.6-.3-1.3.1-1.6 1zM242.8 337.7c.7.3 1.6.2 1.9-.1.4-.3-.2-.6-1.3-.5-1.1 0-1.4.3-.6.6zM223 338.9c0 .5-.3 1.6-.6 2.4-.4 1.2 0 1.4 1.5 1 2.4-.6 2.9-4.3.6-4.3-.8 0-1.5.4-1.5.9zM232 338.4c0 .2.6.9 1.4 1.5 1 .9 1.5.8 2-.4.4-1-.1-1.5-1.4-1.5-1.1 0-2 .2-2 .4zM241.3 340.5c-.7.8-1.3 3-1.3 5 0 2.8.4 3.5 2 3.5 1.1 0 2-.4 2-1 0-.5-.8-.7-1.7-.4-1.7.5-1.7.5 0-.6s2.5-4.6.8-3.6c-.4.3-.6-.6-.3-1.9.5-2.8.2-3-1.5-1zM245 340c-1.3.8-1.2 1 .3 1 .9 0 1.7-.5 1.7-1 0-1.2-.1-1.2-2 0zM259 340c-1.2.8-1 1 .8 1 1.2 0 2.2.5 2.2 1.2 0 .9.3.9 1.2 0 .7-.7 3.7-1.2 6.7-1.2s5.1-.3 4.8-.7c-.8-.8-10.6-.7-11.4.1-.3.3-1.1.2-1.7-.4-.7-.5-1.7-.5-2.6 0zM82.1 341.6c0 1.1.3 1.4.6.6.3-.7.2-1.6-.1-1.9-.3-.4-.6.2-.5 1.3zM137 343c0 .5-1.2 1-2.7 1-1.4 0-2.4.3-2 .6 1 1 7.8-.6 7.2-1.7-.8-1.2-2.5-1.2-2.5.1zM233.6 343.4c.3.9 1.1 1.6 1.6 1.6 1.3 0 .5-2.3-1-2.8-.7-.2-1 .2-.6 1.2z"/><path d="M259.5 342.9c-.3.5-.1 1.2.5 1.6.5.3 1-.1 1-.9 0-1.8-.6-2.1-1.5-.7zM79.4 346.7c.2 1.6.5 3.1.5 3.5.1.5.9.8 1.9.8 1.5 0 1.5-.2.2-1.1-1.1-.8-1.2-1.2-.2-1.6 2.1-.8 1.4-4.3-.8-4.3-1.7 0-2 .5-1.6 2.7zM124.6 344.9c-.4.5.3.7 1.4.4 2.3-.6 2.6-1.3.6-1.3-.8 0-1.7.4-2 .9zM262 344.9c0 .5.8.9 1.8.9.9-.1 2.8.2 4.2.6 1.7.6 2.2.5 1.5-.2-1.5-1.5-7.5-2.6-7.5-1.3zM230.8 346.7c.7.3 1.6.2 1.9-.1.4-.3-.2-.6-1.3-.5-1.1 0-1.4.3-.6.6zM127 353c0 .5.5 1 1.1 1 .5 0 .7-.5.4-1-.3-.6-.8-1-1.1-1-.2 0-.4.4-.4 1zM74.3 363.5c-.3.9-.3 1.8-.1 2.1.3.3.8-.4 1.1-1.6.6-2.3-.1-2.7-1-.5zM74.1 368.6c0 1.1.3 1.4.6.6.3-.7.2-1.6-.1-1.9-.3-.4-.6.2-.5 1.3zM68.8 400.7c.7.3 1.6.2 1.9-.1.4-.3-.2-.6-1.3-.5-1.1 0-1.4.3-.6.6zM231.2 110c0 1.4.2 1.9.5 1.2.2-.6.2-1.8 0-2.5-.3-.6-.5-.1-.5 1.3zM276.4 357.2c.4 1.8.8 4.1.9 5 .1.9.5 1.4.9 1.2 1.2-.7 1-5.4-.2-5.4-.5 0-1-.7-1-1.6 0-.9.5-1.2 1.2-.8.7.4.8.3.4-.4-1.5-2.5-2.8-1.2-2.2 2zM65.4 405.4c.5 1.3.2 1.7-.8 1.3-.8-.3-1.7.1-2 1-1 2.6.4 3.4 2.6 1.4 1.6-1.6 1.8-2.3.8-3.8-1.1-1.7-1.1-1.7-.6.1zM51.6 408.8c-.3.4.4.9 1.5.9 2.3.2 2.5-.3.4-1-.8-.4-1.6-.3-1.9.1zM287 383c0 .5.7 1 1.5 1s1.5-.5 1.5-1c0-.6-.7-1-1.5-1s-1.5.4-1.5 1zM292.2 391.1c.2.7 1 1.5 1.7 1.7.8.3 1.2-.1.9-.9-.2-.7-1-1.5-1.7-1.7-.8-.3-1.2.1-.9.9zM574.1 542.6c0 1.1.3 1.4.6.6.3-.7.2-1.6-.1-1.9-.3-.4-.6.2-.5 1.3zM570.5 546.1c-1.1 1.6-.1 1.9 1.3.3.7-.8.8-1.4.3-1.4s-1.3.5-1.6 1.1zM578 548c0 .5.4 1 .9 1 .6 0 1.3-.5 1.6-1 .3-.6-.1-1-.9-1-.9 0-1.6.4-1.6 1zM573.1 551.2c0 2.1.3 3.8.7 3.8 1.2 0 3.2-2.2 3.2-3.5 0-.5-.6-.1-1.3 1-1.1 1.9-1.2 1.7-1.8-1.5l-.6-3.5-.2 3.7zM562 555.9c0 .6.5 1.1 1.1 1.1.7 0 1.8.8 2.6 1.7 1.3 1.6 1.3 1.5.1-.6-1.6-2.7-3.8-3.9-3.8-2.2zM561 559c-.9.6-1 1-.3 1 .6 0 1.5-.5 1.8-1 .8-1.2.4-1.2-1.5 0zM556.6 559.8c-.3.5.1.9.9.9s1.5-.4 1.5-.9c0-.4-.4-.8-.9-.8-.6 0-1.2.4-1.5.8zM555 562.6c0 2.4 2.4 3.3 4.5 1.7 1.9-1.5 1.9-1.5-.4-.8-1.5.5-2.6.3-3.2-.6-.5-.8-.9-.9-.9-.3zM556 567.9c0 .6.4 1.3 1 1.6.6.3.7-.1.4-.9-.7-1.8-1.4-2.1-1.4-.7zM559.9 568.7c-1.3 1.6-1.2 1.7.4.4 1.6-1.3 2.1-2.1 1.3-2.1-.2 0-1 .8-1.7 1.7z"/></svg>